<svg width="58" height="49" viewBox="0 0 58 49" fill="none" xmlns="http://www.w3.org/2000/svg">
<path d="M52.9406 28.865H51.5297V26.043C51.5297 23.7977 50.6377 21.6444 49.0501 20.0567C47.4624 18.4691 45.3091 17.5771 43.0638 17.5771H31.7759V11.1504C32.8519 10.5292 33.6928 9.57029 34.1683 8.42244C34.6437 7.27459 34.7272 6.00194 34.4056 4.80185C34.084 3.60176 33.3755 2.54132 32.3898 1.78498C31.4041 1.02864 30.1964 0.618683 28.954 0.618683C27.7116 0.618683 26.5039 1.02864 25.5182 1.78498C24.5325 2.54132 23.8239 3.60176 23.5024 4.80185C23.1808 6.00194 23.2642 7.27459 23.7397 8.42244C24.2151 9.57029 25.0561 10.5292 26.132 11.1504V17.5771H14.8442C12.5989 17.5771 10.4456 18.4691 8.8579 20.0567C7.27024 21.6444 6.3783 23.7977 6.3783 26.043V28.865H4.96732C3.84467 28.865 2.76801 29.3109 1.97417 30.1048C1.18034 30.8986 0.734375 31.9753 0.734375 33.0979C0.734375 34.2205 1.18034 35.2972 1.97417 36.091C2.76801 36.8849 3.84467 37.3308 4.96732 37.3308H6.3783V40.1528C6.3783 42.3981 7.27024 44.5514 8.8579 46.1391C10.4456 47.7267 12.5989 48.6187 14.8442 48.6187H43.0638C45.3091 48.6187 47.4624 47.7267 49.0501 46.1391C50.6377 44.5514 51.5297 42.3981 51.5297 40.1528V37.3308H52.9406C54.0633 37.3308 55.14 36.8849 55.9338 36.091C56.7276 35.2972 57.1736 34.2205 57.1736 33.0979C57.1736 31.9753 56.7276 30.8986 55.9338 30.1048C55.14 29.3109 54.0633 28.865 52.9406 28.865ZM48.7077 40.1528C48.706 41.6491 48.1109 43.0837 47.0528 44.1418C45.9947 45.1999 44.5601 45.795 43.0638 45.7967H14.8442C13.3478 45.795 11.9133 45.1998 10.8552 44.1418C9.79715 43.0837 9.20197 41.6491 9.20026 40.1528V26.043C9.20195 24.5467 9.79711 23.1121 10.8552 22.054C11.9133 20.9959 13.3478 20.4008 14.8442 20.3991H43.0638C44.5601 20.4007 45.9947 20.9959 47.0528 22.054C48.1109 23.1121 48.706 24.5466 48.7077 26.043V40.1528ZM23.3101 33.0979C23.3101 33.9351 23.0618 34.7535 22.5967 35.4496C22.1316 36.1457 21.4705 36.6882 20.697 37.0086C19.9235 37.329 19.0724 37.4128 18.2513 37.2495C17.4302 37.0862 16.676 36.683 16.084 36.091C15.492 35.4991 15.0888 34.7448 14.9255 33.9237C14.7622 33.1026 14.846 32.2515 15.1664 31.478C15.4868 30.7046 16.0293 30.0435 16.7254 29.5783C17.4215 29.1132 18.2399 28.865 19.0771 28.865C20.1998 28.865 21.2764 29.3109 22.0703 30.1048C22.8641 30.8986 23.3101 31.9753 23.3101 33.0979ZM43.0638 33.0979C43.0638 33.9351 42.8155 34.7535 42.3504 35.4496C41.8853 36.1457 41.2242 36.6882 40.4507 37.0086C39.6772 37.329 38.8261 37.4128 38.005 37.2495C37.1839 37.0862 36.4297 36.683 35.8377 36.091C35.2457 35.4991 34.8426 34.7448 34.6792 33.9237C34.5159 33.1026 34.5997 32.2515 34.9201 31.478C35.2405 30.7046 35.783 30.0435 36.4791 29.5783C37.1753 29.1132 37.9936 28.865 38.8308 28.865C39.9535 28.865 41.0302 29.3109 41.824 30.1048C42.6178 30.8986 43.0638 31.9753 43.0638 33.0979Z" fill="#EBF1FF"/>
<path d="M52.9406 28.865H51.5297V26.043C51.5297 23.7977 50.6377 21.6444 49.0501 20.0567C47.4624 18.4691 45.3091 17.5771 43.0638 17.5771H31.7759V11.1504C32.8519 10.5292 33.6928 9.57029 34.1683 8.42244C34.6437 7.27459 34.7272 6.00194 34.4056 4.80185C34.084 3.60176 33.3755 2.54132 32.3898 1.78498C31.4041 1.02864 30.1964 0.618683 28.954 0.618683C27.7116 0.618683 26.5039 1.02864 25.5182 1.78498C24.5325 2.54132 23.8239 3.60176 23.5024 4.80185C23.1808 6.00194 23.2642 7.27459 23.7397 8.42244C24.2151 9.57029 25.0561 10.5292 26.132 11.1504V17.5771H14.8442C12.5989 17.5771 10.4456 18.4691 8.8579 20.0567C7.27024 21.6444 6.3783 23.7977 6.3783 26.043V28.865H4.96732C3.84467 28.865 2.76801 29.3109 1.97417 30.1048C1.18034 30.8986 0.734375 31.9753 0.734375 33.0979C0.734375 34.2205 1.18034 35.2972 1.97417 36.091C2.76801 36.8849 3.84467 37.3308 4.96732 37.3308H6.3783V40.1528C6.3783 42.3981 7.27024 44.5514 8.8579 46.1391C10.4456 47.7267 12.5989 48.6187 14.8442 48.6187H43.0638C45.3091 48.6187 47.4624 47.7267 49.0501 46.1391C50.6377 44.5514 51.5297 42.3981 51.5297 40.1528V37.3308H52.9406C54.0633 37.3308 55.14 36.8849 55.9338 36.091C56.7276 35.2972 57.1736 34.2205 57.1736 33.0979C57.1736 31.9753 56.7276 30.8986 55.9338 30.1048C55.14 29.3109 54.0633 28.865 52.9406 28.865ZM48.7077 40.1528C48.706 41.6491 48.1109 43.0837 47.0528 44.1418C45.9947 45.1999 44.5601 45.795 43.0638 45.7967H14.8442C13.3478 45.795 11.9133 45.1998 10.8552 44.1418C9.79715 43.0837 9.20197 41.6491 9.20026 40.1528V26.043C9.20195 24.5467 9.79711 23.1121 10.8552 22.054C11.9133 20.9959 13.3478 20.4008 14.8442 20.3991H43.0638C44.5601 20.4007 45.9947 20.9959 47.0528 22.054C48.1109 23.1121 48.706 24.5466 48.7077 26.043V40.1528ZM23.3101 33.0979C23.3101 33.9351 23.0618 34.7535 22.5967 35.4496C22.1316 36.1457 21.4705 36.6882 20.697 37.0086C19.9235 37.329 19.0724 37.4128 18.2513 37.2495C17.4302 37.0862 16.676 36.683 16.084 36.091C15.492 35.4991 15.0888 34.7448 14.9255 33.9237C14.7622 33.1026 14.846 32.2515 15.1664 31.478C15.4868 30.7046 16.0293 30.0435 16.7254 29.5783C17.4215 29.1132 18.2399 28.865 19.0771 28.865C20.1998 28.865 21.2764 29.3109 22.0703 30.1048C22.8641 30.8986 23.3101 31.9753 23.3101 33.0979ZM43.0638 33.0979C43.0638 33.9351 42.8155 34.7535 42.3504 35.4496C41.8853 36.1457 41.2242 36.6882 40.4507 37.0086C39.6772 37.329 38.8261 37.4128 38.005 37.2495C37.1839 37.0862 36.4297 36.683 35.8377 36.091C35.2457 35.4991 34.8426 34.7448 34.6792 33.9237C34.5159 33.1026 34.5997 32.2515 34.9201 31.478C35.2405 30.7046 35.783 30.0435 36.4791 29.5783C37.1753 29.1132 37.9936 28.865 38.8308 28.865C39.9535 28.865 41.0302 29.3109 41.824 30.1048C42.6178 30.8986 43.0638 31.9753 43.0638 33.0979Z" fill="#003CFF"/>
</svg>
