<svg width="46" height="39" viewBox="0 0 46 39" fill="none" xmlns="http://www.w3.org/2000/svg">
<path d="M42.55 22.9501H41.4V20.6573C41.4 18.833 40.673 17.0834 39.379 15.7934C38.085 14.5034 36.33 13.7787 34.5 13.7787H25.3V8.55701C26.177 8.05227 26.8623 7.27318 27.2498 6.34055C27.6374 5.40793 27.7053 4.37389 27.4433 3.39882C27.1812 2.42375 26.6037 1.56214 25.8003 0.947617C24.9969 0.333093 24.0126 0 23 0C21.9874 0 21.0031 0.333093 20.1997 0.947617C19.3963 1.56214 18.8188 2.42375 18.5567 3.39882C18.2947 4.37389 18.3626 5.40793 18.7502 6.34055C19.1377 7.27318 19.823 8.05227 20.7 8.55701V13.7787H11.5C9.67001 13.7787 7.91496 14.5034 6.62096 15.7934C5.32696 17.0834 4.6 18.833 4.6 20.6573V22.9501H3.45C2.535 22.9501 1.65748 23.3124 1.01048 23.9574C0.363481 24.6024 0 25.4772 0 26.3894C0 27.3015 0.363481 28.1763 1.01048 28.8213C1.65748 29.4663 2.535 29.8286 3.45 29.8286H4.6V32.1215C4.6 33.9458 5.32696 35.6954 6.62096 36.9853C7.91496 38.2753 9.67001 39 11.5 39H34.5C36.33 39 38.085 38.2753 39.379 36.9853C40.673 35.6954 41.4 33.9458 41.4 32.1215V29.8286H42.55C43.465 29.8286 44.3425 29.4663 44.9895 28.8213C45.6365 28.1763 46 27.3015 46 26.3894C46 25.4772 45.6365 24.6024 44.9895 23.9574C44.3425 23.3124 43.465 22.9501 42.55 22.9501ZM39.1 32.1215C39.0986 33.3372 38.6135 34.5028 37.7512 35.3625C36.8888 36.2222 35.7196 36.7058 34.5 36.7072H11.5C10.2804 36.7058 9.11122 36.2222 8.24885 35.3625C7.38649 34.5028 6.9014 33.3372 6.9 32.1215V20.6573C6.90138 19.4415 7.38646 18.2759 8.24883 17.4162C9.1112 16.5565 10.2804 16.0729 11.5 16.0716H34.5C35.7196 16.0729 36.8888 16.5565 37.7512 17.4162C38.6136 18.2759 39.0986 19.4415 39.1 20.6573V32.1215ZM18.4 26.3894C18.4 27.0696 18.1977 27.7345 17.8186 28.3001C17.4395 28.8657 16.9007 29.3065 16.2703 29.5668C15.6399 29.8271 14.9462 29.8952 14.2769 29.7625C13.6077 29.6298 12.993 29.3023 12.5105 28.8213C12.028 28.3403 11.6994 27.7275 11.5663 27.0603C11.4332 26.3932 11.5015 25.7017 11.7626 25.0732C12.0237 24.4448 12.4659 23.9076 13.0333 23.5297C13.6006 23.1518 14.2677 22.9501 14.95 22.9501C15.865 22.9501 16.7425 23.3124 17.3895 23.9574C18.0365 24.6024 18.4 25.4772 18.4 26.3894ZM34.5 26.3894C34.5 27.0696 34.2977 27.7345 33.9186 28.3001C33.5395 28.8657 33.0007 29.3065 32.3703 29.5668C31.7398 29.8271 31.0462 29.8952 30.3769 29.7625C29.7077 29.6298 29.093 29.3023 28.6105 28.8213C28.128 28.3403 27.7994 27.7275 27.6663 27.0603C27.5332 26.3932 27.6015 25.7017 27.8626 25.0732C28.1237 24.4448 28.5659 23.9076 29.1333 23.5297C29.7006 23.1518 30.3677 22.9501 31.05 22.9501C31.965 22.9501 32.8425 23.3124 33.4895 23.9574C34.1365 24.6024 34.5 25.4772 34.5 26.3894Z" fill="#EBF1FF"/>
<path d="M42.55 22.9501H41.4V20.6573C41.4 18.833 40.673 17.0834 39.379 15.7934C38.085 14.5034 36.33 13.7787 34.5 13.7787H25.3V8.55701C26.177 8.05227 26.8623 7.27318 27.2498 6.34055C27.6374 5.40793 27.7053 4.37389 27.4433 3.39882C27.1812 2.42375 26.6037 1.56214 25.8003 0.947617C24.9969 0.333093 24.0126 0 23 0C21.9874 0 21.0031 0.333093 20.1997 0.947617C19.3963 1.56214 18.8188 2.42375 18.5567 3.39882C18.2947 4.37389 18.3626 5.40793 18.7502 6.34055C19.1377 7.27318 19.823 8.05227 20.7 8.55701V13.7787H11.5C9.67001 13.7787 7.91496 14.5034 6.62096 15.7934C5.32696 17.0834 4.6 18.833 4.6 20.6573V22.9501H3.45C2.535 22.9501 1.65748 23.3124 1.01048 23.9574C0.363481 24.6024 0 25.4772 0 26.3894C0 27.3015 0.363481 28.1763 1.01048 28.8213C1.65748 29.4663 2.535 29.8286 3.45 29.8286H4.6V32.1215C4.6 33.9458 5.32696 35.6954 6.62096 36.9853C7.91496 38.2753 9.67001 39 11.5 39H34.5C36.33 39 38.085 38.2753 39.379 36.9853C40.673 35.6954 41.4 33.9458 41.4 32.1215V29.8286H42.55C43.465 29.8286 44.3425 29.4663 44.9895 28.8213C45.6365 28.1763 46 27.3015 46 26.3894C46 25.4772 45.6365 24.6024 44.9895 23.9574C44.3425 23.3124 43.465 22.9501 42.55 22.9501ZM39.1 32.1215C39.0986 33.3372 38.6135 34.5028 37.7512 35.3625C36.8888 36.2222 35.7196 36.7058 34.5 36.7072H11.5C10.2804 36.7058 9.11122 36.2222 8.24885 35.3625C7.38649 34.5028 6.9014 33.3372 6.9 32.1215V20.6573C6.90138 19.4415 7.38646 18.2759 8.24883 17.4162C9.1112 16.5565 10.2804 16.0729 11.5 16.0716H34.5C35.7196 16.0729 36.8888 16.5565 37.7512 17.4162C38.6136 18.2759 39.0986 19.4415 39.1 20.6573V32.1215ZM18.4 26.3894C18.4 27.0696 18.1977 27.7345 17.8186 28.3001C17.4395 28.8657 16.9007 29.3065 16.2703 29.5668C15.6399 29.8271 14.9462 29.8952 14.2769 29.7625C13.6077 29.6298 12.993 29.3023 12.5105 28.8213C12.028 28.3403 11.6994 27.7275 11.5663 27.0603C11.4332 26.3932 11.5015 25.7017 11.7626 25.0732C12.0237 24.4448 12.4659 23.9076 13.0333 23.5297C13.6006 23.1518 14.2677 22.9501 14.95 22.9501C15.865 22.9501 16.7425 23.3124 17.3895 23.9574C18.0365 24.6024 18.4 25.4772 18.4 26.3894ZM34.5 26.3894C34.5 27.0696 34.2977 27.7345 33.9186 28.3001C33.5395 28.8657 33.0007 29.3065 32.3703 29.5668C31.7398 29.8271 31.0462 29.8952 30.3769 29.7625C29.7077 29.6298 29.093 29.3023 28.6105 28.8213C28.128 28.3403 27.7994 27.7275 27.6663 27.0603C27.5332 26.3932 27.6015 25.7017 27.8626 25.0732C28.1237 24.4448 28.5659 23.9076 29.1333 23.5297C29.7006 23.1518 30.3677 22.9501 31.05 22.9501C31.965 22.9501 32.8425 23.3124 33.4895 23.9574C34.1365 24.6024 34.5 25.4772 34.5 26.3894Z" fill="white"/>
</svg>
