<svg width="36" height="37" viewBox="0 0 36 37" fill="none" xmlns="http://www.w3.org/2000/svg">
<path d="M31.6365 11.088C30.3615 9.67801 28.2315 8.97301 25.1415 8.97301H24.7815V8.91301C24.7815 6.39301 24.7815 3.27301 19.1415 3.27301H16.8615C11.2215 3.27301 11.2215 6.40801 11.2215 8.91301V8.98801H10.8615C7.75652 8.98801 5.64152 9.69301 4.36652 11.103C2.88152 12.753 2.92652 14.973 3.07652 16.488L3.09152 16.593L3.2077 17.8129C3.2291 18.0376 3.3501 18.2405 3.53893 18.3641C3.89864 18.5995 4.50066 18.9875 4.86152 19.188C5.07152 19.323 5.29652 19.443 5.52152 19.563C8.08652 20.973 10.9065 21.918 13.7715 22.383C13.9065 23.793 14.5215 25.443 17.8065 25.443C21.0915 25.443 21.7365 23.808 21.8415 22.353C24.9015 21.858 27.8565 20.793 30.5265 19.233C30.6165 19.188 30.6765 19.143 30.7515 19.098C31.3466 18.7617 31.964 18.3472 32.5267 17.9413C32.6962 17.819 32.8046 17.6299 32.8277 17.4221L32.8515 17.208L32.9265 16.503C32.9415 16.413 32.9415 16.338 32.9565 16.233C33.0765 14.718 33.0465 12.648 31.6365 11.088ZM19.6365 21.363C19.6365 22.953 19.6365 23.193 17.7915 23.193C15.9465 23.193 15.9465 22.908 15.9465 21.378V19.488H19.6365V21.363ZM13.3665 8.97301V8.91301C13.3665 6.36301 13.3665 5.41801 16.8615 5.41801H19.1415C22.6365 5.41801 22.6365 6.37801 22.6365 8.91301V8.98801H13.3665V8.97301Z" fill="#BBC1D2"/>
<path d="M31.31 21.2196C31.8404 20.9672 32.4513 21.3876 32.3982 21.9726L31.8598 27.9033C31.5448 30.9033 30.3148 33.9633 23.7148 33.9633H12.2848C5.68476 33.9633 4.45477 30.9033 4.13977 27.9183L3.6287 22.2966C3.57614 21.7184 4.17307 21.2984 4.70202 21.5377C6.41115 22.311 9.56586 23.6829 11.5146 24.1933C11.7611 24.2579 11.9604 24.4342 12.0683 24.665C12.9788 26.6122 14.9534 27.6483 17.8048 27.6483C20.6279 27.6483 22.6275 26.5723 23.541 24.6204C23.649 24.3894 23.8486 24.2131 24.0952 24.1482C26.1645 23.6037 29.5224 22.0702 31.31 21.2196Z" fill="#BBC1D2"/>
</svg>
