<svg width="48" height="49" viewBox="0 0 48 49" fill="none" xmlns="http://www.w3.org/2000/svg">
<g clip-path="url(#clip0_1_14795)">
<g filter="url(#filter0_ddi_1_14795)">
<rect y="0.119141" width="48" height="48" rx="12" fill="#447EFC"/>
</g>
<g clip-path="url(#clip1_1_14795)" filter="url(#filter1_di_1_14795)">
<path d="M23.9974 13.1862C27.5599 13.1862 27.9818 13.2018 29.3828 13.2643C30.6849 13.3216 31.388 13.5404 31.8568 13.7227C32.4766 13.9622 32.9245 14.2539 33.388 14.7174C33.8568 15.1862 34.1432 15.6289 34.3828 16.2487C34.5651 16.7174 34.7839 17.4258 34.8411 18.7227C34.9036 20.1289 34.9193 20.5508 34.9193 24.1081C34.9193 27.6706 34.9036 28.0925 34.8411 29.4935C34.7839 30.7956 34.5651 31.4987 34.3828 31.9675C34.1432 32.5872 33.8516 33.0352 33.388 33.4987C32.9193 33.9674 32.4766 34.2539 31.8568 34.4935C31.388 34.6758 30.6797 34.8945 29.3828 34.9518C27.9766 35.0143 27.5547 35.0299 23.9974 35.0299C20.4349 35.0299 20.013 35.0143 18.612 34.9518C17.3099 34.8945 16.6068 34.6758 16.138 34.4935C15.5182 34.2539 15.0703 33.9622 14.6068 33.4987C14.138 33.0299 13.8516 32.5872 13.612 31.9675C13.4297 31.4987 13.2109 30.7904 13.1536 29.4935C13.0911 28.0872 13.0755 27.6654 13.0755 24.1081C13.0755 20.5456 13.0911 20.1237 13.1536 18.7227C13.2109 17.4206 13.4297 16.7174 13.612 16.2487C13.8516 15.6289 14.1432 15.181 14.6068 14.7174C15.0755 14.2487 15.5182 13.9622 16.138 13.7227C16.6068 13.5404 17.3151 13.3216 18.612 13.2643C20.013 13.2018 20.4349 13.1862 23.9974 13.1862ZM23.9974 10.7852C20.3776 10.7852 19.9245 10.8008 18.5026 10.8633C17.0859 10.9258 16.112 11.1549 15.2682 11.4831C14.388 11.8268 13.6432 12.2799 12.9036 13.0247C12.1589 13.7643 11.7057 14.5091 11.362 15.3841C11.0339 16.2331 10.8047 17.2018 10.7422 18.6185C10.6797 20.0456 10.6641 20.4987 10.6641 24.1185C10.6641 27.7383 10.6797 28.1914 10.7422 29.6133C10.8047 31.0299 11.0339 32.0039 11.362 32.8477C11.7057 33.7279 12.1589 34.4727 12.9036 35.2122C13.6432 35.9518 14.388 36.4102 15.263 36.7487C16.112 37.0768 17.0807 37.306 18.4974 37.3685C19.9193 37.431 20.3724 37.4466 23.9922 37.4466C27.612 37.4466 28.0651 37.431 29.487 37.3685C30.9036 37.306 31.8776 37.0768 32.7214 36.7487C33.5964 36.4102 34.3411 35.9518 35.0807 35.2122C35.8203 34.4727 36.2786 33.7279 36.6172 32.8529C36.9453 32.0039 37.1745 31.0352 37.237 29.6185C37.2995 28.1966 37.3151 27.7435 37.3151 24.1237C37.3151 20.5039 37.2995 20.0508 37.237 18.6289C37.1745 17.2122 36.9453 16.2383 36.6172 15.3945C36.2891 14.5091 35.8359 13.7643 35.0911 13.0247C34.3516 12.2852 33.6068 11.8268 32.7318 11.4883C31.8828 11.1602 30.9141 10.931 29.4974 10.8685C28.0703 10.8008 27.6172 10.7852 23.9974 10.7852Z" fill="url(#paint0_linear_1_14795)"/>
<path d="M24.0052 17.2695C20.224 17.2695 17.1562 20.3372 17.1562 24.1185C17.1562 27.8997 20.224 30.9674 24.0052 30.9674C27.7865 30.9674 30.8542 27.8997 30.8542 24.1185C30.8542 20.3372 27.7865 17.2695 24.0052 17.2695ZM24.0052 28.5612C21.5521 28.5612 19.5625 26.5716 19.5625 24.1185C19.5625 21.6654 21.5521 19.6758 24.0052 19.6758C26.4583 19.6758 28.4479 21.6654 28.4479 24.1185C28.4479 26.5716 26.4583 28.5612 24.0052 28.5612Z" fill="url(#paint1_linear_1_14795)"/>
<path d="M32.7214 16.9994C32.7214 17.8848 32.0026 18.5983 31.1224 18.5983C30.237 18.5983 29.5234 17.8796 29.5234 16.9994C29.5234 16.1139 30.2422 15.4004 31.1224 15.4004C32.0026 15.4004 32.7214 16.1191 32.7214 16.9994Z" fill="url(#paint2_linear_1_14795)"/>
</g>
</g>
<defs>
<filter id="filter0_ddi_1_14795" x="-1.65" y="-1.12224" width="51.3" height="51.4414" filterUnits="userSpaceOnUse" color-interpolation-filters="sRGB">
<feFlood flood-opacity="0" result="BackgroundImageFix"/>
<feColorMatrix in="SourceAlpha" type="matrix" values="0 0 0 0 0 0 0 0 0 0 0 0 0 0 0 0 0 0 127 0" result="hardAlpha"/>
<feOffset dy="0.55"/>
<feGaussianBlur stdDeviation="0.825"/>
<feComposite in2="hardAlpha" operator="out"/>
<feColorMatrix type="matrix" values="0 0 0 0 0 0 0 0 0 0 0 0 0 0 0 0 0 0 0.1 0"/>
<feBlend mode="normal" in2="BackgroundImageFix" result="effect1_dropShadow_1_14795"/>
<feColorMatrix in="SourceAlpha" type="matrix" values="0 0 0 0 0 0 0 0 0 0 0 0 0 0 0 0 0 0 127 0" result="hardAlpha"/>
<feMorphology radius="1.24138" operator="dilate" in="SourceAlpha" result="effect2_dropShadow_1_14795"/>
<feOffset/>
<feComposite in2="hardAlpha" operator="out"/>
<feColorMatrix type="matrix" values="0 0 0 0 0.140477 0 0 0 0 0.367684 0 0 0 0 0.861272 0 0 0 1 0"/>
<feBlend mode="normal" in2="effect1_dropShadow_1_14795" result="effect2_dropShadow_1_14795"/>
<feBlend mode="normal" in="SourceGraphic" in2="effect2_dropShadow_1_14795" result="shape"/>
<feColorMatrix in="SourceAlpha" type="matrix" values="0 0 0 0 0 0 0 0 0 0 0 0 0 0 0 0 0 0 127 0" result="hardAlpha"/>
<feOffset dy="0.4"/>
<feGaussianBlur stdDeviation="1.56"/>
<feComposite in2="hardAlpha" operator="arithmetic" k2="-1" k3="1"/>
<feColorMatrix type="matrix" values="0 0 0 0 1 0 0 0 0 1 0 0 0 0 1 0 0 0 0.12 0"/>
<feBlend mode="normal" in2="shape" result="effect3_innerShadow_1_14795"/>
</filter>
<filter id="filter1_di_1_14795" x="7.53906" y="9.53516" width="32.9167" height="32.917" filterUnits="userSpaceOnUse" color-interpolation-filters="sRGB">
<feFlood flood-opacity="0" result="BackgroundImageFix"/>
<feColorMatrix in="SourceAlpha" type="matrix" values="0 0 0 0 0 0 0 0 0 0 0 0 0 0 0 0 0 0 127 0" result="hardAlpha"/>
<feOffset dy="1.875"/>
<feGaussianBlur stdDeviation="1.5625"/>
<feComposite in2="hardAlpha" operator="out"/>
<feColorMatrix type="matrix" values="0 0 0 0 0.0820866 0 0 0 0 0.265127 0 0 0 0 0.662767 0 0 0 0.5 0"/>
<feBlend mode="normal" in2="BackgroundImageFix" result="effect1_dropShadow_1_14795"/>
<feBlend mode="normal" in="SourceGraphic" in2="effect1_dropShadow_1_14795" result="shape"/>
<feColorMatrix in="SourceAlpha" type="matrix" values="0 0 0 0 0 0 0 0 0 0 0 0 0 0 0 0 0 0 127 0" result="hardAlpha"/>
<feOffset dy="2.5"/>
<feGaussianBlur stdDeviation="1.25"/>
<feComposite in2="hardAlpha" operator="arithmetic" k2="-1" k3="1"/>
<feColorMatrix type="matrix" values="0 0 0 0 1 0 0 0 0 1 0 0 0 0 1 0 0 0 0.3 0"/>
<feBlend mode="normal" in2="shape" result="effect2_innerShadow_1_14795"/>
</filter>
<linearGradient id="paint0_linear_1_14795" x1="23.9896" y1="10.7852" x2="23.9896" y2="37.4466" gradientUnits="userSpaceOnUse">
<stop stop-color="#EBF1FF"/>
<stop offset="1" stop-color="#BECFF5"/>
</linearGradient>
<linearGradient id="paint1_linear_1_14795" x1="24.0052" y1="17.2695" x2="24.0052" y2="30.9674" gradientUnits="userSpaceOnUse">
<stop stop-color="#EBF1FF"/>
<stop offset="1" stop-color="#BECFF5"/>
</linearGradient>
<linearGradient id="paint2_linear_1_14795" x1="31.1224" y1="15.4004" x2="31.1224" y2="18.5983" gradientUnits="userSpaceOnUse">
<stop stop-color="#EBF1FF"/>
<stop offset="1" stop-color="#BECFF5"/>
</linearGradient>
<clipPath id="clip0_1_14795">
<rect y="0.119141" width="48" height="48" rx="24" fill="white"/>
</clipPath>
<clipPath id="clip1_1_14795">
<rect width="26.6667" height="26.6667" fill="white" transform="translate(10.6641 10.7852)"/>
</clipPath>
</defs>
</svg>
