<svg width="119" height="25" viewBox="0 0 119 25" fill="none" xmlns="http://www.w3.org/2000/svg">
<path d="M0 0.647272C2.6644 0.63904 2.6644 0.63904 5.38262 0.630642C5.93984 0.62822 6.49706 0.625797 7.07116 0.623301C7.76087 0.6221 7.76087 0.6221 8.08554 0.621876C8.30838 0.621472 8.53122 0.620546 8.75405 0.61918C12.1664 0.599338 15.459 1.17657 18.1823 3.39679C18.2316 3.43646 18.2809 3.47613 18.3316 3.51701C20.7589 5.47804 22.4924 8.12062 22.855 11.276C23.1217 14.4049 22.3436 17.2669 20.3671 19.7099C19.839 20.322 19.2418 20.8111 18.5963 21.2915C18.463 21.3908 18.3309 21.4916 18.1989 21.5926C17.5964 22.0454 16.9634 22.4368 16.3108 22.8121C16.2025 22.8747 16.0946 22.9381 15.9873 23.0024C15.2773 23.4275 14.5472 23.7338 13.7642 24.0015C13.6398 24.0448 13.6398 24.0448 13.5129 24.089C11.7977 24.6497 10.0867 24.6291 8.30464 24.6129C7.90775 24.6097 7.51085 24.6085 7.11394 24.607C6.51649 24.6044 5.9191 24.5993 5.32164 24.5947C5.32164 23.0434 5.32164 21.4921 5.32164 19.8939C3.5655 19.8939 1.80936 19.8939 0 19.8939C0 13.5425 0 7.19112 0 0.647272ZM5.49903 4.81589C5.49903 9.76236 5.49903 14.7088 5.49903 19.8052C10.7279 20.0534 10.7279 20.0534 15.1036 17.7455C15.183 17.6642 15.2623 17.5829 15.3441 17.4991C15.4161 17.4279 15.4881 17.3567 15.5623 17.2833C16.9113 15.8813 17.5076 14.0007 17.4996 12.0807C17.4569 10.1886 16.6634 8.53549 15.4328 7.12194C15.3868 7.06751 15.3408 7.01309 15.2935 6.95702C14.1719 5.72838 12.427 5.04537 10.8207 4.81589C9.06453 4.81589 7.30839 4.81589 5.49903 4.81589Z" fill="#1C3480"/>
<path d="M68.9297 7.63236C76.011 7.63236 76.011 7.63236 76.9769 8.55118C77.5685 9.23945 77.8318 10.0272 77.8251 10.9234C77.76 11.5659 77.5107 12.1826 77.2669 12.7766C77.3227 12.8122 77.3785 12.8477 77.436 12.8844C78.4985 13.59 79.1879 14.4491 79.4843 15.7035C79.6157 16.9789 79.4623 18.1002 78.6708 19.1411C78.5905 19.2395 78.5905 19.2395 78.5086 19.34C78.4643 19.3965 78.4199 19.4529 78.3742 19.5111C77.8838 20.0684 77.0274 20.536 76.2913 20.6704C76.0518 20.6783 75.8147 20.6816 75.5752 20.6805C75.5022 20.6805 75.4292 20.6805 75.354 20.6805C75.1181 20.6804 74.8822 20.6797 74.6463 20.679C74.5005 20.6789 74.3547 20.6788 74.2088 20.6788C73.6687 20.6783 73.1285 20.6771 72.5883 20.6759C71.381 20.6741 70.1736 20.6723 68.9297 20.6704C68.9297 16.3678 68.9297 12.0653 68.9297 7.63236ZM70.4375 9.14016C70.4375 10.2231 70.4375 11.3061 70.4375 12.4218C71.0182 12.4259 71.5988 12.4295 72.1795 12.4316C72.3769 12.4325 72.5742 12.4337 72.7716 12.4352C73.056 12.4374 73.3405 12.4384 73.6249 12.4392C73.7124 12.4401 73.8 12.441 73.8901 12.4419C74.5547 12.442 75.1934 12.422 75.7037 11.9451C75.7898 11.8672 75.7898 11.8672 75.8776 11.7878C76.2286 11.3973 76.2409 11.0478 76.2307 10.5378C76.177 10.0697 75.9735 9.79159 75.6316 9.46722C75.2553 9.2194 74.9457 9.11779 74.4953 9.12002C74.3595 9.12004 74.3595 9.12004 74.221 9.12006C74.1243 9.12098 74.0277 9.12189 73.9281 9.12284C73.8283 9.12309 73.7285 9.12334 73.6257 9.1236C73.3076 9.12459 72.9896 9.12682 72.6715 9.12907C72.4556 9.12996 72.2397 9.13077 72.0238 9.1315C71.495 9.1333 70.9663 9.13678 70.4375 9.14016ZM70.4375 13.9296C70.4375 15.6565 70.4375 17.3834 70.4375 19.1626C71.1285 19.1682 71.8195 19.1735 72.5105 19.1764C72.8324 19.1778 73.1542 19.1796 73.4761 19.1827C73.7866 19.1856 74.0971 19.1871 74.4077 19.1878C74.5826 19.1886 74.7576 19.1906 74.9325 19.1927C75.9613 19.1929 76.5896 19.0282 77.3404 18.3124C77.8667 17.7274 78.011 17.0867 78.0007 16.3192C77.9297 15.5551 77.5491 14.979 77.0008 14.4618C76.2539 13.8705 75.5189 13.905 74.6037 13.9123C74.4833 13.9126 74.3629 13.9129 74.2424 13.9131C73.9273 13.9137 73.6123 13.9155 73.2972 13.9175C72.9749 13.9193 72.6526 13.9201 72.3304 13.921C71.6994 13.9228 71.0685 13.9263 70.4375 13.9296Z" fill="#1C3480"/>
<path d="M38.9141 7.67073C40.0921 7.66342 41.2702 7.6561 42.484 7.64856C42.854 7.64533 43.224 7.6421 43.6052 7.63877C44.0621 7.63717 44.0621 7.63717 44.2769 7.63687C44.4249 7.63633 44.5728 7.6351 44.7207 7.63328C46.149 7.61663 47.2482 7.81987 48.3323 8.82653C49.1848 9.7178 49.5178 10.7173 49.5573 11.928C49.5287 13.0197 49.0921 14.0029 48.3544 14.8051C47.7326 15.384 46.9712 15.7019 46.187 16.008C46.2504 16.0865 46.3139 16.1651 46.3793 16.246C46.9199 16.9174 47.4504 17.5952 47.9716 18.2817C48.3453 18.7725 48.728 19.2553 49.1177 19.7335C49.3725 20.0481 49.604 20.3684 49.8234 20.7088C48.1329 20.9183 48.1329 20.9183 47.5967 20.5968C47.2751 20.2977 47.0504 19.9342 46.8284 19.5581C46.6636 19.287 46.4677 19.044 46.2701 18.7963C46.198 18.7024 46.126 18.6084 46.0543 18.5143C45.8162 18.2037 45.5751 17.8955 45.3333 17.5878C45.2961 17.5405 45.259 17.4932 45.2207 17.4444C45.1436 17.3464 45.0649 17.2498 44.9848 17.1542C44.8566 16.9836 44.8566 16.9836 44.7359 16.752C44.5348 16.4138 44.3555 16.151 43.9576 16.0473C43.3867 15.9687 42.815 15.9864 42.2401 15.9969C41.3401 16.0024 41.3401 16.0024 40.4219 16.008C40.4219 17.5592 40.4219 19.1105 40.4219 20.7088C39.9243 20.7088 39.4267 20.7088 38.9141 20.7088C38.9141 16.4062 38.9141 12.1037 38.9141 7.67073ZM40.4219 9.17853C40.4219 10.9054 40.4219 12.6323 40.4219 14.4115C41.1245 14.4189 41.8269 14.426 42.5295 14.4298C42.8568 14.4317 43.184 14.4342 43.5112 14.4382C43.827 14.4421 44.1427 14.4442 44.4584 14.4451C44.6363 14.4461 44.8142 14.4489 44.992 14.4517C45.9484 14.4519 46.5757 14.2477 47.2759 13.5949C47.8603 12.9866 47.9986 12.3906 47.9834 11.5705C47.9221 10.8538 47.5735 10.2604 47.0407 9.78276C46.4662 9.31384 45.9364 9.16692 45.2046 9.16846C45.0449 9.16847 45.0449 9.16847 44.8819 9.16848C44.7678 9.16894 44.6537 9.1694 44.5361 9.16987C44.4174 9.17004 44.2987 9.17016 44.18 9.17025C43.8687 9.17059 43.5574 9.17146 43.2461 9.17244C42.9281 9.17335 42.61 9.17376 42.2919 9.1742C41.6685 9.1751 41.0452 9.17684 40.4219 9.17853Z" fill="#1C3480"/>
<path d="M63.05 8.73283C64.579 9.86406 65.5884 11.3367 65.8844 13.2347C66.1115 15.1833 65.6239 16.9264 64.432 18.4843C63.3918 19.7159 61.8732 20.6276 60.2506 20.7712C59.9605 20.7815 59.6722 20.7824 59.382 20.7793C59.2857 20.7803 59.1895 20.7813 59.0903 20.7824C58.1572 20.7791 57.2928 20.597 56.4606 20.1695C56.4012 20.1391 56.3417 20.1087 56.2805 20.0774C54.7356 19.2515 53.6684 17.8663 53.0792 16.2264C52.5671 14.4266 52.806 12.5227 53.6803 10.8816C54.6698 9.29174 56.0817 8.28922 57.8742 7.7967C59.6419 7.39437 61.5457 7.73995 63.05 8.73283ZM55.7455 10.8123C55.6956 10.8603 55.6456 10.9083 55.5941 10.9578C54.6748 11.9184 54.3812 13.1763 54.382 14.4597C54.4048 15.3989 54.6975 16.2384 55.2134 17.0209C55.2559 17.0863 55.2984 17.1517 55.3423 17.2191C56.055 18.2224 57.2221 18.9865 58.4389 19.2133C59.9964 19.3797 61.2542 19.0777 62.5417 18.1628C63.4861 17.3944 64.1292 16.2629 64.3489 15.0696C64.493 13.6302 64.2291 12.3555 63.3732 11.1671C62.4818 10.1055 61.3802 9.41013 60.0029 9.2158C58.3064 9.109 56.9432 9.59954 55.7455 10.8123Z" fill="#1C3480"/>
<path d="M89.0436 7.63272C89.1889 7.63392 89.1889 7.63392 89.3372 7.63515C91.1851 7.67458 92.6227 8.40931 93.894 9.71149C93.9825 9.79724 93.9825 9.79724 94.0728 9.88472C95.2886 11.1443 95.6376 12.8295 95.6208 14.5191C95.5653 16.3407 94.8263 17.7732 93.5393 19.0244C93.4769 19.0854 93.4146 19.1465 93.3504 19.2094C91.8807 20.5692 90.1448 20.7801 88.2287 20.7251C86.6072 20.6343 85.2158 19.7123 84.1211 18.5643C82.9049 17.1333 82.4212 15.3811 82.5412 13.5253C82.7673 11.7767 83.5436 10.2289 84.894 9.07677C86.1468 8.12016 87.462 7.61693 89.0436 7.63272ZM85.3794 10.7758C84.8546 11.4317 84.4555 12.0877 84.2264 12.9045C84.2033 12.9863 84.2033 12.9863 84.1797 13.0697C83.9015 14.3244 84.1283 15.7041 84.7863 16.7904C85.5806 17.9499 86.5909 18.7637 87.9682 19.1408C89.3492 19.3986 90.6616 19.1375 91.8541 18.4035C92.172 18.1573 92.4589 17.8914 92.741 17.6053C92.792 17.5552 92.843 17.5051 92.8955 17.4535C93.8125 16.4796 94.1282 15.1516 94.0964 13.8507C93.978 12.3066 93.2255 11.1315 92.0779 10.1432C90.0489 8.61649 87.0861 8.88754 85.3794 10.7758Z" fill="#1C3480"/>
<path d="M29.0013 7.63236C29.4989 7.63236 29.9965 7.63236 30.5091 7.63236C30.7522 8.10763 30.973 8.58501 31.1754 9.07884C31.2042 9.14858 31.233 9.21832 31.2627 9.29017C31.3573 9.51909 31.4515 9.74815 31.5457 9.97721C31.613 10.1402 31.6803 10.3031 31.7476 10.466C31.8871 10.8038 32.0265 11.1416 32.1658 11.4794C32.4489 12.1658 32.7332 12.8517 33.0177 13.5376C33.1093 13.7585 33.2008 13.9795 33.2924 14.2005C33.6464 15.055 34.0022 15.9088 34.3594 16.762C34.4811 17.0532 34.6029 17.3444 34.7246 17.6356C34.8035 17.8239 34.8824 18.0123 34.9615 18.2006C35.072 18.4639 35.1822 18.7273 35.2924 18.9907C35.325 19.0682 35.3576 19.1456 35.3913 19.2254C35.422 19.299 35.4526 19.3726 35.4843 19.4484C35.5106 19.5113 35.537 19.5742 35.5642 19.639C35.6941 19.9786 35.8045 20.3254 35.9195 20.6704C35.3634 20.6704 34.8072 20.6704 34.2343 20.6704C34.0897 20.3435 33.9456 20.0164 33.8019 19.6892C33.7611 19.5971 33.7203 19.505 33.6782 19.4101C33.6388 19.3201 33.5993 19.2301 33.5587 19.1373C33.5224 19.0551 33.4862 18.9729 33.4489 18.8882C33.3363 18.6023 33.2544 18.305 33.1699 18.0096C29.8333 18.0535 29.8333 18.0535 26.4292 18.0983C26.078 18.9471 25.7267 19.7959 25.3649 20.6704C24.8088 20.6704 24.2527 20.6704 23.6797 20.6704C23.7625 20.2563 23.8911 19.9016 24.0539 19.516C24.0977 19.4108 24.0977 19.4108 24.1424 19.3035C24.2391 19.0716 24.3363 18.8399 24.4336 18.6082C24.5021 18.4441 24.5706 18.28 24.6391 18.1158C24.7812 17.775 24.9236 17.4344 25.066 17.0937C25.3531 16.4069 25.6377 15.7189 25.9224 15.0311C26.738 13.061 27.5587 11.093 28.3793 9.12505C28.5867 8.62752 28.794 8.12995 29.0013 7.63236ZM29.7109 10.0271C28.9734 11.7501 28.2373 13.4735 27.5323 15.2102C27.5074 15.2714 27.4825 15.3326 27.4569 15.3957C27.3875 15.5665 27.3183 15.7373 27.2493 15.9083C27.2106 16.0041 27.1719 16.1 27.132 16.1988C27.0448 16.3886 27.0448 16.3886 27.0501 16.5018C28.8355 16.5018 30.6209 16.5018 32.4604 16.5018C32.3953 16.1763 32.3348 15.9413 32.2101 15.6439C32.1768 15.5641 32.1436 15.4844 32.1094 15.4022C32.0733 15.3166 32.0372 15.2311 32 15.1429C31.9436 15.0081 31.9436 15.0081 31.8861 14.8706C31.7657 14.5827 31.6446 14.295 31.5236 14.0072C31.4445 13.8184 31.3654 13.6296 31.2864 13.4408C31.1316 13.0709 30.9762 12.7012 30.8206 12.3317C30.6747 11.9852 30.5306 11.6382 30.3879 11.2904C30.3554 11.2117 30.3229 11.133 30.2895 11.052C30.2288 10.905 30.1687 10.7579 30.109 10.6105C29.9853 10.2558 29.9853 10.2558 29.7109 10.0271Z" fill="#1C3480"/>
<path d="M116.711 8.94836C116.787 9.00872 116.864 9.06909 116.943 9.13129C116.807 9.44917 116.618 9.66598 116.378 9.9129C116.31 9.98482 116.241 10.0567 116.171 10.1308C115.968 10.2843 115.968 10.2843 115.8 10.2819C115.542 10.163 115.293 10.0311 115.042 9.89627C113.872 9.29295 112.699 9.14055 111.427 9.49369C110.87 9.67531 110.433 9.85841 110.114 10.373C109.913 10.8028 109.901 11.1637 110.025 11.6147C110.331 12.182 110.709 12.4864 111.312 12.7062C111.762 12.8312 112.228 12.8542 112.692 12.8952C114.545 13.0825 116.081 13.4734 117.373 14.8999C118.02 15.6979 118.106 16.5492 118.008 17.5572C117.744 18.5882 117.081 19.3665 116.189 19.9187C114.648 20.7815 112.713 21.0584 110.991 20.6276C109.673 20.2344 108.401 19.4475 107.542 18.3555C107.469 18.176 107.469 18.176 107.453 18.0007C107.609 17.8118 107.757 17.6552 107.935 17.4907C107.982 17.4458 108.029 17.4008 108.078 17.3545C108.194 17.2437 108.311 17.1342 108.429 17.0251C108.758 17.1607 108.948 17.3595 109.188 17.6182C110.156 18.6005 111.347 19.1527 112.736 19.1759C113.861 19.162 114.94 18.8209 115.84 18.1337C116.233 17.7307 116.392 17.3204 116.411 16.759C116.302 16.2238 116.03 15.7786 115.613 15.4286C114.672 14.8347 113.703 14.6428 112.614 14.5472C111.533 14.4517 110.5 14.2732 109.582 13.6547C109.464 13.5779 109.464 13.5779 109.343 13.4995C108.659 12.8333 108.339 12.0348 108.301 11.0881C108.326 10.2345 108.639 9.48376 109.227 8.86521C111.245 6.97477 114.611 7.46437 116.711 8.94836Z" fill="#1C3480"/>
<path d="M96.3906 7.63236C99.7858 7.63236 103.181 7.63236 106.679 7.63236C106.679 8.12994 106.679 8.62751 106.679 9.14016C105.245 9.14016 103.811 9.14016 102.333 9.14016C102.333 12.9451 102.333 16.7501 102.333 20.6704C101.806 20.6704 101.279 20.6704 100.737 20.6704C100.737 16.8654 100.737 13.0604 100.737 9.14016C99.3025 9.14016 97.8683 9.14016 96.3906 9.14016C96.3906 8.64259 96.3906 8.14501 96.3906 7.63236Z" fill="#1C3480"/>
<path d="M0.0859375 20.6929C1.52012 20.6929 2.9543 20.6929 4.43194 20.6929C4.43194 21.9515 4.43194 23.21 4.43194 24.5068C4.37341 24.5068 4.31487 24.5068 4.25456 24.5068C4.21157 24.4146 4.16858 24.3224 4.12429 24.2275C3.40448 22.7158 2.56848 21.7525 0.972878 21.1364C0.679423 21.0386 0.384791 20.95 0.0859375 20.8703C0.0859375 20.8118 0.0859375 20.7532 0.0859375 20.6929Z" fill="#1C3480"/>
</svg>
