<svg width="25" height="25" viewBox="0 0 25 25" fill="none" xmlns="http://www.w3.org/2000/svg">
<path d="M19.2634 17.4491L19.6534 20.6091C19.7534 21.4391 18.8634 22.0191 18.1534 21.5891L14.6934 19.5291C14.4534 19.3891 14.3934 19.0891 14.5234 18.8491C15.0234 17.9291 15.2934 16.8891 15.2934 15.8491C15.2934 12.1891 12.1534 9.20914 8.29335 9.20914C7.50335 9.20914 6.73335 9.32914 6.01335 9.56914C5.64335 9.68914 5.28335 9.34914 5.37335 8.96914C6.28335 5.32914 9.78335 2.61914 13.9634 2.61914C18.8434 2.61914 22.7934 6.30914 22.7934 10.8591C22.7934 13.5591 21.4034 15.9491 19.2634 17.4491Z" fill="#292D32"/>
<path d="M19.2634 17.4491L19.6534 20.6091C19.7534 21.4391 18.8634 22.0191 18.1534 21.5891L14.6934 19.5291C14.4534 19.3891 14.3934 19.0891 14.5234 18.8491C15.0234 17.9291 15.2934 16.8891 15.2934 15.8491C15.2934 12.1891 12.1534 9.20914 8.29335 9.20914C7.50335 9.20914 6.73335 9.32914 6.01335 9.56914C5.64335 9.68914 5.28335 9.34914 5.37335 8.96914C6.28335 5.32914 9.78335 2.61914 13.9634 2.61914C18.8434 2.61914 22.7934 6.30914 22.7934 10.8591C22.7934 13.5591 21.4034 15.9491 19.2634 17.4491Z" fill="url(#paint0_linear_1_15131)"/>
<path d="M13.7969 15.849C13.7969 17.039 13.3569 18.139 12.6169 19.009C11.6269 20.209 10.0569 20.979 8.29688 20.979L5.68687 22.529C5.24687 22.799 4.68688 22.429 4.74688 21.919L4.99687 19.949C3.65687 19.019 2.79688 17.529 2.79688 15.849C2.79688 14.089 3.73688 12.539 5.17688 11.619C6.06687 11.039 7.13688 10.709 8.29688 10.709C11.3369 10.709 13.7969 13.009 13.7969 15.849Z" fill="#292D32"/>
<path d="M13.7969 15.849C13.7969 17.039 13.3569 18.139 12.6169 19.009C11.6269 20.209 10.0569 20.979 8.29688 20.979L5.68687 22.529C5.24687 22.799 4.68688 22.429 4.74688 21.919L4.99687 19.949C3.65687 19.019 2.79688 17.529 2.79688 15.849C2.79688 14.089 3.73688 12.539 5.17688 11.619C6.06687 11.039 7.13688 10.709 8.29688 10.709C11.3369 10.709 13.7969 13.009 13.7969 15.849Z" fill="url(#paint1_linear_1_15131)"/>
<defs>
<linearGradient id="paint0_linear_1_15131" x1="14.0764" y1="2.61914" x2="14.0764" y2="21.7348" gradientUnits="userSpaceOnUse">
<stop stop-color="#EBF1FF"/>
<stop offset="1" stop-color="#BECFF5"/>
</linearGradient>
<linearGradient id="paint1_linear_1_15131" x1="8.29688" y1="10.709" x2="8.29688" y2="22.6198" gradientUnits="userSpaceOnUse">
<stop stop-color="#EBF1FF"/>
<stop offset="1" stop-color="#BECFF5"/>
</linearGradient>
</defs>
</svg>
