<svg width="24" height="25" viewBox="0 0 24 25" fill="none" xmlns="http://www.w3.org/2000/svg">
<path d="M17 2.61914H7C4.24 2.61914 2 4.84914 2 7.59914V13.5791V14.5791C2 17.3291 4.24 19.5591 7 19.5591H8.5C8.77 19.5591 9.13 19.7391 9.3 19.9591L10.8 21.9491C11.46 22.8291 12.54 22.8291 13.2 21.9491L14.7 19.9591C14.89 19.7091 15.19 19.5591 15.5 19.5591H17C19.76 19.5591 22 17.3291 22 14.5791V7.59914C22 4.84914 19.76 2.61914 17 2.61914ZM8 12.6191C7.44 12.6191 7 12.1691 7 11.6191C7 11.0691 7.45 10.6191 8 10.6191C8.55 10.6191 9 11.0691 9 11.6191C9 12.1691 8.56 12.6191 8 12.6191ZM12 12.6191C11.44 12.6191 11 12.1691 11 11.6191C11 11.0691 11.45 10.6191 12 10.6191C12.55 10.6191 13 11.0691 13 11.6191C13 12.1691 12.56 12.6191 12 12.6191ZM16 12.6191C15.44 12.6191 15 12.1691 15 11.6191C15 11.0691 15.45 10.6191 16 10.6191C16.55 10.6191 17 11.0691 17 11.6191C17 12.1691 16.56 12.6191 16 12.6191Z" fill="#292D32"/>
<path d="M17 2.61914H7C4.24 2.61914 2 4.84914 2 7.59914V13.5791V14.5791C2 17.3291 4.24 19.5591 7 19.5591H8.5C8.77 19.5591 9.13 19.7391 9.3 19.9591L10.8 21.9491C11.46 22.8291 12.54 22.8291 13.2 21.9491L14.7 19.9591C14.89 19.7091 15.19 19.5591 15.5 19.5591H17C19.76 19.5591 22 17.3291 22 14.5791V7.59914C22 4.84914 19.76 2.61914 17 2.61914ZM8 12.6191C7.44 12.6191 7 12.1691 7 11.6191C7 11.0691 7.45 10.6191 8 10.6191C8.55 10.6191 9 11.0691 9 11.6191C9 12.1691 8.56 12.6191 8 12.6191ZM12 12.6191C11.44 12.6191 11 12.1691 11 11.6191C11 11.0691 11.45 10.6191 12 10.6191C12.55 10.6191 13 11.0691 13 11.6191C13 12.1691 12.56 12.6191 12 12.6191ZM16 12.6191C15.44 12.6191 15 12.1691 15 11.6191C15 11.0691 15.45 10.6191 16 10.6191C16.55 10.6191 17 11.0691 17 11.6191C17 12.1691 16.56 12.6191 16 12.6191Z" fill="url(#paint0_linear_1_14728)"/>
<defs>
<linearGradient id="paint0_linear_1_14728" x1="12" y1="2.61914" x2="12" y2="22.6091" gradientUnits="userSpaceOnUse">
<stop stop-color="#EBF1FF"/>
<stop offset="1" stop-color="#BECFF5"/>
</linearGradient>
</defs>
</svg>
