<svg width="269" height="12" viewBox="0 0 269 12" fill="none" xmlns="http://www.w3.org/2000/svg">
<rect x="8.79297" y="3.71533" width="111.75" height="1" fill="#D6E3EB"/>
<rect x="0.792969" y="0.215332" width="8" height="8" rx="2" fill="#FBFBFC"/>
<rect x="1.29297" y="0.715332" width="7" height="7" rx="1.5" stroke="#045B8A" stroke-opacity="0.15"/>
<rect x="141.793" y="0.215332" width="2" height="2" rx="1" transform="rotate(90 141.793 0.215332)" fill="#D6E3EB"/>
<rect x="141.793" y="3.21533" width="2" height="2" rx="1" transform="rotate(90 141.793 3.21533)" fill="#D6E3EB"/>
<rect x="138.793" y="3.21533" width="2" height="2" rx="1" transform="rotate(90 138.793 3.21533)" fill="#D6E3EB"/>
<rect x="138.793" y="6.21533" width="2" height="2" rx="1" transform="rotate(90 138.793 6.21533)" fill="#D6E3EB"/>
<rect x="135.793" y="6.21533" width="2" height="2" rx="1" transform="rotate(90 135.793 6.21533)" fill="#D6E3EB"/>
<rect x="135.793" y="9.21533" width="2" height="2" rx="1" transform="rotate(90 135.793 9.21533)" fill="#D6E3EB"/>
<rect x="132.793" y="3.21533" width="2" height="2" rx="1" transform="rotate(90 132.793 3.21533)" fill="#D6E3EB"/>
<rect x="132.793" y="6.21533" width="2" height="2" rx="1" transform="rotate(90 132.793 6.21533)" fill="#D6E3EB"/>
<rect x="129.793" y="0.215332" width="2" height="2" rx="1" transform="rotate(90 129.793 0.215332)" fill="#D6E3EB"/>
<rect x="129.793" y="3.21533" width="2" height="2" rx="1" transform="rotate(90 129.793 3.21533)" fill="#D6E3EB"/>
<rect width="111.75" height="1" transform="matrix(-1 0 0 1 260.793 3.71533)" fill="#D6E3EB"/>
<rect width="8" height="8" rx="2" transform="matrix(-1 0 0 1 268.793 0.215332)" fill="#FBFBFC"/>
<rect x="-0.5" y="0.5" width="7" height="7" rx="1.5" transform="matrix(-1 0 0 1 267.793 0.215332)" stroke="#045B8A" stroke-opacity="0.15"/>
</svg>
