<svg width="25" height="25" viewBox="0 0 25 25" fill="none" xmlns="http://www.w3.org/2000/svg">
<path d="M20.9926 9.83859C19.1826 9.83859 18.4426 8.55859 19.3426 6.98859C19.8626 6.07859 19.5526 4.91859 18.6426 4.39859L16.9126 3.40859C16.1226 2.93859 15.1026 3.21859 14.6326 4.00859L14.5226 4.19859C13.6226 5.76859 12.1426 5.76859 11.2326 4.19859L11.1226 4.00859C10.6726 3.21859 9.65258 2.93859 8.86258 3.40859L7.13258 4.39859C6.22258 4.91859 5.91258 6.08859 6.43258 6.99859C7.34258 8.55859 6.60258 9.83859 4.79258 9.83859C3.75258 9.83859 2.89258 10.6886 2.89258 11.7386V13.4986C2.89258 14.5386 3.74258 15.3986 4.79258 15.3986C6.60258 15.3986 7.34258 16.6786 6.43258 18.2486C5.91258 19.1586 6.22258 20.3186 7.13258 20.8386L8.86258 21.8286C9.65258 22.2986 10.6726 22.0186 11.1426 21.2286L11.2526 21.0386C12.1526 19.4686 13.6326 19.4686 14.5426 21.0386L14.6526 21.2286C15.1226 22.0186 16.1426 22.2986 16.9326 21.8286L18.6626 20.8386C19.5726 20.3186 19.8826 19.1486 19.3626 18.2486C18.4526 16.6786 19.1926 15.3986 21.0026 15.3986C22.0426 15.3986 22.9026 14.5486 22.9026 13.4986V11.7386C22.8926 10.6986 22.0426 9.83859 20.9926 9.83859ZM12.8926 15.8686C11.1026 15.8686 9.64258 14.4086 9.64258 12.6186C9.64258 10.8286 11.1026 9.36859 12.8926 9.36859C14.6826 9.36859 16.1426 10.8286 16.1426 12.6186C16.1426 14.4086 14.6826 15.8686 12.8926 15.8686Z" fill="#292D32"/>
<path d="M20.9926 9.83859C19.1826 9.83859 18.4426 8.55859 19.3426 6.98859C19.8626 6.07859 19.5526 4.91859 18.6426 4.39859L16.9126 3.40859C16.1226 2.93859 15.1026 3.21859 14.6326 4.00859L14.5226 4.19859C13.6226 5.76859 12.1426 5.76859 11.2326 4.19859L11.1226 4.00859C10.6726 3.21859 9.65258 2.93859 8.86258 3.40859L7.13258 4.39859C6.22258 4.91859 5.91258 6.08859 6.43258 6.99859C7.34258 8.55859 6.60258 9.83859 4.79258 9.83859C3.75258 9.83859 2.89258 10.6886 2.89258 11.7386V13.4986C2.89258 14.5386 3.74258 15.3986 4.79258 15.3986C6.60258 15.3986 7.34258 16.6786 6.43258 18.2486C5.91258 19.1586 6.22258 20.3186 7.13258 20.8386L8.86258 21.8286C9.65258 22.2986 10.6726 22.0186 11.1426 21.2286L11.2526 21.0386C12.1526 19.4686 13.6326 19.4686 14.5426 21.0386L14.6526 21.2286C15.1226 22.0186 16.1426 22.2986 16.9326 21.8286L18.6626 20.8386C19.5726 20.3186 19.8826 19.1486 19.3626 18.2486C18.4526 16.6786 19.1926 15.3986 21.0026 15.3986C22.0426 15.3986 22.9026 14.5486 22.9026 13.4986V11.7386C22.8926 10.6986 22.0426 9.83859 20.9926 9.83859ZM12.8926 15.8686C11.1026 15.8686 9.64258 14.4086 9.64258 12.6186C9.64258 10.8286 11.1026 9.36859 12.8926 9.36859C14.6826 9.36859 16.1426 10.8286 16.1426 12.6186C16.1426 14.4086 14.6826 15.8686 12.8926 15.8686Z" fill="url(#paint0_linear_1_14864)"/>
<defs>
<linearGradient id="paint0_linear_1_14864" x1="12.8976" y1="3.17969" x2="12.8976" y2="22.0575" gradientUnits="userSpaceOnUse">
<stop stop-color="#EBF1FF"/>
<stop offset="1" stop-color="#BECFF5"/>
</linearGradient>
</defs>
</svg>
