<svg width="48" height="49" viewBox="0 0 48 49" fill="none" xmlns="http://www.w3.org/2000/svg">
<g clip-path="url(#clip0_1_14792)">
<g filter="url(#filter0_ddi_1_14792)">
<rect x="7.62939e-06" y="0.119141" width="48" height="48" rx="12" fill="#447EFC"/>
</g>
<g filter="url(#filter1_di_1_14792)">
<path fill-rule="evenodd" clip-rule="evenodd" d="M10.8621 23.8651C17.8586 20.8168 22.524 18.8072 24.8583 17.8363C31.5234 15.064 32.9083 14.5825 33.811 14.5666C34.0096 14.5631 34.4535 14.6123 34.741 14.8456C34.9838 15.0426 35.0506 15.3088 35.0826 15.4956C35.1146 15.6823 35.1544 16.1079 35.1227 16.4404C34.7615 20.2353 33.1987 29.4447 32.4036 33.6951C32.0672 35.4936 31.4048 36.0967 30.7635 36.1557C29.3697 36.2839 28.3114 35.2346 26.9615 34.3497C24.8492 32.9651 23.6559 32.1031 21.6055 30.752C19.236 29.1905 20.772 28.3323 22.1224 26.9297C22.4759 26.5626 28.6166 20.9771 28.7355 20.4704C28.7504 20.407 28.7642 20.1708 28.6238 20.0461C28.4835 19.9214 28.2764 19.964 28.1269 19.9979C27.9151 20.046 24.5406 22.2764 18.0036 26.6891C17.0457 27.3468 16.1782 27.6673 15.4009 27.6505C14.5439 27.632 12.8956 27.166 11.6702 26.7676C10.1672 26.2791 8.97261 26.0208 9.07663 25.191C9.13081 24.7588 9.72596 24.3168 10.8621 23.8651Z" fill="white"/>
<path fill-rule="evenodd" clip-rule="evenodd" d="M10.8621 23.8651C17.8586 20.8168 22.524 18.8072 24.8583 17.8363C31.5234 15.064 32.9083 14.5825 33.811 14.5666C34.0096 14.5631 34.4535 14.6123 34.741 14.8456C34.9838 15.0426 35.0506 15.3088 35.0826 15.4956C35.1146 15.6823 35.1544 16.1079 35.1227 16.4404C34.7615 20.2353 33.1987 29.4447 32.4036 33.6951C32.0672 35.4936 31.4048 36.0967 30.7635 36.1557C29.3697 36.2839 28.3114 35.2346 26.9615 34.3497C24.8492 32.9651 23.6559 32.1031 21.6055 30.752C19.236 29.1905 20.772 28.3323 22.1224 26.9297C22.4759 26.5626 28.6166 20.9771 28.7355 20.4704C28.7504 20.407 28.7642 20.1708 28.6238 20.0461C28.4835 19.9214 28.2764 19.964 28.1269 19.9979C27.9151 20.046 24.5406 22.2764 18.0036 26.6891C17.0457 27.3468 16.1782 27.6673 15.4009 27.6505C14.5439 27.632 12.8956 27.166 11.6702 26.7676C10.1672 26.2791 8.97261 26.0208 9.07663 25.191C9.13081 24.7588 9.72596 24.3168 10.8621 23.8651Z" fill="url(#paint0_linear_1_14792)"/>
</g>
</g>
<defs>
<filter id="filter0_ddi_1_14792" x="-1.64999" y="-1.12224" width="51.3" height="51.4414" filterUnits="userSpaceOnUse" color-interpolation-filters="sRGB">
<feFlood flood-opacity="0" result="BackgroundImageFix"/>
<feColorMatrix in="SourceAlpha" type="matrix" values="0 0 0 0 0 0 0 0 0 0 0 0 0 0 0 0 0 0 127 0" result="hardAlpha"/>
<feOffset dy="0.55"/>
<feGaussianBlur stdDeviation="0.825"/>
<feComposite in2="hardAlpha" operator="out"/>
<feColorMatrix type="matrix" values="0 0 0 0 0 0 0 0 0 0 0 0 0 0 0 0 0 0 0.1 0"/>
<feBlend mode="normal" in2="BackgroundImageFix" result="effect1_dropShadow_1_14792"/>
<feColorMatrix in="SourceAlpha" type="matrix" values="0 0 0 0 0 0 0 0 0 0 0 0 0 0 0 0 0 0 127 0" result="hardAlpha"/>
<feMorphology radius="1.24138" operator="dilate" in="SourceAlpha" result="effect2_dropShadow_1_14792"/>
<feOffset/>
<feComposite in2="hardAlpha" operator="out"/>
<feColorMatrix type="matrix" values="0 0 0 0 0.140477 0 0 0 0 0.367684 0 0 0 0 0.861272 0 0 0 1 0"/>
<feBlend mode="normal" in2="effect1_dropShadow_1_14792" result="effect2_dropShadow_1_14792"/>
<feBlend mode="normal" in="SourceGraphic" in2="effect2_dropShadow_1_14792" result="shape"/>
<feColorMatrix in="SourceAlpha" type="matrix" values="0 0 0 0 0 0 0 0 0 0 0 0 0 0 0 0 0 0 127 0" result="hardAlpha"/>
<feOffset dy="0.4"/>
<feGaussianBlur stdDeviation="1.56"/>
<feComposite in2="hardAlpha" operator="arithmetic" k2="-1" k3="1"/>
<feColorMatrix type="matrix" values="0 0 0 0 1 0 0 0 0 1 0 0 0 0 1 0 0 0 0.12 0"/>
<feBlend mode="normal" in2="shape" result="effect3_innerShadow_1_14792"/>
</filter>
<filter id="filter1_di_1_14792" x="5.32031" y="13.0664" width="33.564" height="29.0996" filterUnits="userSpaceOnUse" color-interpolation-filters="sRGB">
<feFlood flood-opacity="0" result="BackgroundImageFix"/>
<feColorMatrix in="SourceAlpha" type="matrix" values="0 0 0 0 0 0 0 0 0 0 0 0 0 0 0 0 0 0 127 0" result="hardAlpha"/>
<feOffset dy="2.25"/>
<feGaussianBlur stdDeviation="1.875"/>
<feComposite in2="hardAlpha" operator="out"/>
<feColorMatrix type="matrix" values="0 0 0 0 0.0820866 0 0 0 0 0.265127 0 0 0 0 0.662767 0 0 0 0.5 0"/>
<feBlend mode="normal" in2="BackgroundImageFix" result="effect1_dropShadow_1_14792"/>
<feBlend mode="normal" in="SourceGraphic" in2="effect1_dropShadow_1_14792" result="shape"/>
<feColorMatrix in="SourceAlpha" type="matrix" values="0 0 0 0 0 0 0 0 0 0 0 0 0 0 0 0 0 0 127 0" result="hardAlpha"/>
<feOffset dy="3"/>
<feGaussianBlur stdDeviation="1.5"/>
<feComposite in2="hardAlpha" operator="arithmetic" k2="-1" k3="1"/>
<feColorMatrix type="matrix" values="0 0 0 0 1 0 0 0 0 1 0 0 0 0 1 0 0 0 0.3 0"/>
<feBlend mode="normal" in2="shape" result="effect2_innerShadow_1_14792"/>
</filter>
<linearGradient id="paint0_linear_1_14792" x1="22.1023" y1="14.5664" x2="22.1023" y2="36.1664" gradientUnits="userSpaceOnUse">
<stop stop-color="#EBF1FF"/>
<stop offset="1" stop-color="#BECFF5"/>
</linearGradient>
<clipPath id="clip0_1_14792">
<rect y="0.119141" width="48" height="48" rx="24" fill="white"/>
</clipPath>
</defs>
</svg>
