<svg width="41" height="42" viewBox="0 0 41 42" fill="none" xmlns="http://www.w3.org/2000/svg">
<g filter="url(#filter0_di_132_15202)">
<path d="M33.8084 11.0879C32.5334 9.67795 30.4034 8.97295 27.3134 8.97295H26.9534V8.91295C26.9534 6.39295 26.9534 3.27295 21.3134 3.27295H19.0334C13.3934 3.27295 13.3934 6.40795 13.3934 8.91295V8.98795H13.0334C9.9284 8.98795 7.8134 9.69295 6.5384 11.1029C5.0534 12.7529 5.0984 14.9729 5.2484 16.4879L5.2634 16.5929L5.37958 17.8129C5.40098 18.0375 5.52197 18.2405 5.71081 18.364C6.07052 18.5994 6.67253 18.9875 7.0334 19.188C7.2434 19.323 7.4684 19.4429 7.6934 19.563C10.2584 20.9729 13.0784 21.9179 15.9434 22.3829C16.0784 23.7929 16.6934 25.4429 19.9784 25.4429C23.2634 25.4429 23.9084 23.8079 24.0134 22.3529C27.0734 21.8579 30.0284 20.7929 32.6984 19.2329C32.7884 19.1879 32.8484 19.1429 32.9234 19.0979C33.5185 18.7616 34.1359 18.3472 34.6986 17.9412C34.8681 17.8189 34.9765 17.6298 34.9996 17.4221L35.0234 17.208L35.0984 16.5029C35.1134 16.4129 35.1134 16.3379 35.1284 16.2329C35.2484 14.7179 35.2184 12.6479 33.8084 11.0879ZM21.8084 21.3629C21.8084 22.9529 21.8084 23.193 19.9634 23.193C18.1184 23.193 18.1184 22.9079 18.1184 21.3779V19.4879H21.8084V21.3629ZM15.5384 8.97295V8.91295C15.5384 6.36295 15.5384 5.41795 19.0334 5.41795H21.3134C24.8084 5.41795 24.8084 6.37795 24.8084 8.91295V8.98795H15.5384V8.97295Z" fill="#292D32"/>
<path d="M33.8084 11.0879C32.5334 9.67795 30.4034 8.97295 27.3134 8.97295H26.9534V8.91295C26.9534 6.39295 26.9534 3.27295 21.3134 3.27295H19.0334C13.3934 3.27295 13.3934 6.40795 13.3934 8.91295V8.98795H13.0334C9.9284 8.98795 7.8134 9.69295 6.5384 11.1029C5.0534 12.7529 5.0984 14.9729 5.2484 16.4879L5.2634 16.5929L5.37958 17.8129C5.40098 18.0375 5.52197 18.2405 5.71081 18.364C6.07052 18.5994 6.67253 18.9875 7.0334 19.188C7.2434 19.323 7.4684 19.4429 7.6934 19.563C10.2584 20.9729 13.0784 21.9179 15.9434 22.3829C16.0784 23.7929 16.6934 25.4429 19.9784 25.4429C23.2634 25.4429 23.9084 23.8079 24.0134 22.3529C27.0734 21.8579 30.0284 20.7929 32.6984 19.2329C32.7884 19.1879 32.8484 19.1429 32.9234 19.0979C33.5185 18.7616 34.1359 18.3472 34.6986 17.9412C34.8681 17.8189 34.9765 17.6298 34.9996 17.4221L35.0234 17.208L35.0984 16.5029C35.1134 16.4129 35.1134 16.3379 35.1284 16.2329C35.2484 14.7179 35.2184 12.6479 33.8084 11.0879ZM21.8084 21.3629C21.8084 22.9529 21.8084 23.193 19.9634 23.193C18.1184 23.193 18.1184 22.9079 18.1184 21.3779V19.4879H21.8084V21.3629ZM15.5384 8.97295V8.91295C15.5384 6.36295 15.5384 5.41795 19.0334 5.41795H21.3134C24.8084 5.41795 24.8084 6.37795 24.8084 8.91295V8.98795H15.5384V8.97295Z" fill="url(#paint0_linear_132_15202)"/>
<path d="M33.4819 21.2195C34.0122 20.9671 34.6231 21.3875 34.57 21.9725L34.0316 27.9032C33.7166 30.9032 32.4866 33.9632 25.8866 33.9632H14.4566C7.85664 33.9632 6.62664 30.9032 6.31164 27.9182L5.80057 22.2965C5.74801 21.7183 6.34494 21.2984 6.8739 21.5377C8.58302 22.3109 11.7377 23.6828 13.6865 24.1932C13.933 24.2578 14.1323 24.4342 14.2402 24.665C15.1507 26.6122 17.1253 27.6482 19.9766 27.6482C22.7998 27.6482 24.7994 26.5723 25.7128 24.6203C25.8209 24.3893 26.0205 24.213 26.2671 24.1481C28.3364 23.6036 31.6943 22.0701 33.4819 21.2195Z" fill="#292D32"/>
<path d="M33.4819 21.2195C34.0122 20.9671 34.6231 21.3875 34.57 21.9725L34.0316 27.9032C33.7166 30.9032 32.4866 33.9632 25.8866 33.9632H14.4566C7.85664 33.9632 6.62664 30.9032 6.31164 27.9182L5.80057 22.2965C5.74801 21.7183 6.34494 21.2984 6.8739 21.5377C8.58302 22.3109 11.7377 23.6828 13.6865 24.1932C13.933 24.2578 14.1323 24.4342 14.2402 24.665C15.1507 26.6122 17.1253 27.6482 19.9766 27.6482C22.7998 27.6482 24.7994 26.5723 25.7128 24.6203C25.8209 24.3893 26.0205 24.213 26.2671 24.1481C28.3364 23.6036 31.6943 22.0701 33.4819 21.2195Z" fill="url(#paint1_linear_132_15202)"/>
</g>
<defs>
<filter id="filter0_di_132_15202" x="0.177734" y="1.27295" width="39.9941" height="40.6902" filterUnits="userSpaceOnUse" color-interpolation-filters="sRGB">
<feFlood flood-opacity="0" result="BackgroundImageFix"/>
<feColorMatrix in="SourceAlpha" type="matrix" values="0 0 0 0 0 0 0 0 0 0 0 0 0 0 0 0 0 0 127 0" result="hardAlpha"/>
<feOffset dy="3"/>
<feGaussianBlur stdDeviation="2.5"/>
<feComposite in2="hardAlpha" operator="out"/>
<feColorMatrix type="matrix" values="0 0 0 0 0.0820866 0 0 0 0 0.265127 0 0 0 0 0.662767 0 0 0 0.5 0"/>
<feBlend mode="normal" in2="BackgroundImageFix" result="effect1_dropShadow_132_15202"/>
<feBlend mode="normal" in="SourceGraphic" in2="effect1_dropShadow_132_15202" result="shape"/>
<feColorMatrix in="SourceAlpha" type="matrix" values="0 0 0 0 0 0 0 0 0 0 0 0 0 0 0 0 0 0 127 0" result="hardAlpha"/>
<feOffset dy="4"/>
<feGaussianBlur stdDeviation="2"/>
<feComposite in2="hardAlpha" operator="arithmetic" k2="-1" k3="1"/>
<feColorMatrix type="matrix" values="0 0 0 0 1 0 0 0 0 1 0 0 0 0 1 0 0 0 0.3 0"/>
<feBlend mode="normal" in2="shape" result="effect2_innerShadow_132_15202"/>
</filter>
<linearGradient id="paint0_linear_132_15202" x1="20.1753" y1="3.27295" x2="20.1753" y2="25.4429" gradientUnits="userSpaceOnUse">
<stop stop-color="#EBF1FF"/>
<stop offset="1" stop-color="#BECFF5"/>
</linearGradient>
<linearGradient id="paint1_linear_132_15202" x1="20.1866" y1="20.6328" x2="20.1866" y2="33.9632" gradientUnits="userSpaceOnUse">
<stop stop-color="#EBF1FF"/>
<stop offset="1" stop-color="#BECFF5"/>
</linearGradient>
</defs>
</svg>
