<svg width="37" height="42" viewBox="0 0 37 42" fill="none" xmlns="http://www.w3.org/2000/svg">
<g filter="url(#filter0_di_1_14501)">
<path d="M28.1178 6.79842L19.8678 3.70842C19.0128 3.39342 17.6178 3.39342 16.7628 3.70842L8.51281 6.79842C6.92281 7.39842 5.63281 9.25842 5.63281 10.9534V23.1034C5.63281 24.3184 6.42781 25.9234 7.40281 26.6434L15.6528 32.8084C17.1078 33.9034 19.4928 33.9034 20.9478 32.8084L29.1978 26.6434C30.1728 25.9084 30.9678 24.3184 30.9678 23.1034V10.9534C30.9828 9.25842 29.6928 7.39842 28.1178 6.79842ZM23.5278 15.1984L17.0778 21.6484C16.8528 21.8734 16.5678 21.9784 16.2828 21.9784C15.9978 21.9784 15.7128 21.8734 15.4878 21.6484L13.0878 19.2184C12.6528 18.7834 12.6528 18.0634 13.0878 17.6284C13.5228 17.1934 14.2428 17.1934 14.6778 17.6284L16.2978 19.2484L21.9528 13.5934C22.3878 13.1584 23.1078 13.1584 23.5428 13.5934C23.9778 14.0284 23.9778 14.7634 23.5278 15.1984Z" fill="#292D32"/>
<path d="M28.1178 6.79842L19.8678 3.70842C19.0128 3.39342 17.6178 3.39342 16.7628 3.70842L8.51281 6.79842C6.92281 7.39842 5.63281 9.25842 5.63281 10.9534V23.1034C5.63281 24.3184 6.42781 25.9234 7.40281 26.6434L15.6528 32.8084C17.1078 33.9034 19.4928 33.9034 20.9478 32.8084L29.1978 26.6434C30.1728 25.9084 30.9678 24.3184 30.9678 23.1034V10.9534C30.9828 9.25842 29.6928 7.39842 28.1178 6.79842ZM23.5278 15.1984L17.0778 21.6484C16.8528 21.8734 16.5678 21.9784 16.2828 21.9784C15.9978 21.9784 15.7128 21.8734 15.4878 21.6484L13.0878 19.2184C12.6528 18.7834 12.6528 18.0634 13.0878 17.6284C13.5228 17.1934 14.2428 17.1934 14.6778 17.6284L16.2978 19.2484L21.9528 13.5934C22.3878 13.1584 23.1078 13.1584 23.5428 13.5934C23.9778 14.0284 23.9778 14.7634 23.5278 15.1984Z" fill="url(#paint0_linear_1_14501)"/>
</g>
<defs>
<filter id="filter0_di_1_14501" x="0.632812" y="1.47217" width="35.3351" height="40.1577" filterUnits="userSpaceOnUse" color-interpolation-filters="sRGB">
<feFlood flood-opacity="0" result="BackgroundImageFix"/>
<feColorMatrix in="SourceAlpha" type="matrix" values="0 0 0 0 0 0 0 0 0 0 0 0 0 0 0 0 0 0 127 0" result="hardAlpha"/>
<feOffset dy="3"/>
<feGaussianBlur stdDeviation="2.5"/>
<feComposite in2="hardAlpha" operator="out"/>
<feColorMatrix type="matrix" values="0 0 0 0 0.0820866 0 0 0 0 0.265127 0 0 0 0 0.662767 0 0 0 0.5 0"/>
<feBlend mode="normal" in2="BackgroundImageFix" result="effect1_dropShadow_1_14501"/>
<feBlend mode="normal" in="SourceGraphic" in2="effect1_dropShadow_1_14501" result="shape"/>
<feColorMatrix in="SourceAlpha" type="matrix" values="0 0 0 0 0 0 0 0 0 0 0 0 0 0 0 0 0 0 127 0" result="hardAlpha"/>
<feOffset dy="4"/>
<feGaussianBlur stdDeviation="2"/>
<feComposite in2="hardAlpha" operator="arithmetic" k2="-1" k3="1"/>
<feColorMatrix type="matrix" values="0 0 0 0 1 0 0 0 0 1 0 0 0 0 1 0 0 0 0.3 0"/>
<feBlend mode="normal" in2="shape" result="effect2_innerShadow_1_14501"/>
</filter>
<linearGradient id="paint0_linear_1_14501" x1="18.3004" y1="3.47217" x2="18.3004" y2="33.6297" gradientUnits="userSpaceOnUse">
<stop stop-color="#EBF1FF"/>
<stop offset="1" stop-color="#BECFF5"/>
</linearGradient>
</defs>
</svg>
