<svg width="40" height="42" viewBox="0 0 40 42" fill="none" xmlns="http://www.w3.org/2000/svg">
<g filter="url(#filter0_di_1_14490)">
<path d="M25.5302 3.93437C24.9152 3.31937 23.8502 3.73937 23.8502 4.59437V9.82937C23.8502 12.0194 25.7102 13.8344 27.9752 13.8344C29.4002 13.8494 31.3802 13.8494 33.0752 13.8494C33.9302 13.8494 34.3802 12.8444 33.7802 12.2444C31.6202 10.0694 27.7502 6.15437 25.5302 3.93437Z" fill="#292D32"/>
<path d="M25.5302 3.93437C24.9152 3.31937 23.8502 3.73937 23.8502 4.59437V9.82937C23.8502 12.0194 25.7102 13.8344 27.9752 13.8344C29.4002 13.8494 31.3802 13.8494 33.0752 13.8494C33.9302 13.8494 34.3802 12.8444 33.7802 12.2444C31.6202 10.0694 27.7502 6.15437 25.5302 3.93437Z" fill="url(#paint0_linear_1_14490)"/>
<path d="M32.5807 15.9037H28.2457C24.6907 15.9037 21.7957 13.0087 21.7957 9.45365V5.11865C21.7957 4.29365 21.1207 3.61865 20.2957 3.61865H13.9357C9.31569 3.61865 5.58069 6.61865 5.58069 11.9737V25.2637C5.58069 30.6187 9.31569 33.6187 13.9357 33.6187H25.7257C30.3457 33.6187 34.0807 30.6187 34.0807 25.2637V17.4037C34.0807 16.5787 33.4057 15.9037 32.5807 15.9037ZM19.0807 27.2437H13.0807C12.4657 27.2437 11.9557 26.7337 11.9557 26.1187C11.9557 25.5037 12.4657 24.9937 13.0807 24.9937H19.0807C19.6957 24.9937 20.2057 25.5037 20.2057 26.1187C20.2057 26.7337 19.6957 27.2437 19.0807 27.2437ZM22.0807 21.2437H13.0807C12.4657 21.2437 11.9557 20.7337 11.9557 20.1187C11.9557 19.5037 12.4657 18.9937 13.0807 18.9937H22.0807C22.6957 18.9937 23.2057 19.5037 23.2057 20.1187C23.2057 20.7337 22.6957 21.2437 22.0807 21.2437Z" fill="#292D32"/>
<path d="M32.5807 15.9037H28.2457C24.6907 15.9037 21.7957 13.0087 21.7957 9.45365V5.11865C21.7957 4.29365 21.1207 3.61865 20.2957 3.61865H13.9357C9.31569 3.61865 5.58069 6.61865 5.58069 11.9737V25.2637C5.58069 30.6187 9.31569 33.6187 13.9357 33.6187H25.7257C30.3457 33.6187 34.0807 30.6187 34.0807 25.2637V17.4037C34.0807 16.5787 33.4057 15.9037 32.5807 15.9037ZM19.0807 27.2437H13.0807C12.4657 27.2437 11.9557 26.7337 11.9557 26.1187C11.9557 25.5037 12.4657 24.9937 13.0807 24.9937H19.0807C19.6957 24.9937 20.2057 25.5037 20.2057 26.1187C20.2057 26.7337 19.6957 27.2437 19.0807 27.2437ZM22.0807 21.2437H13.0807C12.4657 21.2437 11.9557 20.7337 11.9557 20.1187C11.9557 19.5037 12.4657 18.9937 13.0807 18.9937H22.0807C22.6957 18.9937 23.2057 19.5037 23.2057 20.1187C23.2057 20.7337 22.6957 21.2437 22.0807 21.2437Z" fill="url(#paint1_linear_1_14490)"/>
</g>
<defs>
<filter id="filter0_di_1_14490" x="0.580688" y="1.61865" width="38.5" height="40" filterUnits="userSpaceOnUse" color-interpolation-filters="sRGB">
<feFlood flood-opacity="0" result="BackgroundImageFix"/>
<feColorMatrix in="SourceAlpha" type="matrix" values="0 0 0 0 0 0 0 0 0 0 0 0 0 0 0 0 0 0 127 0" result="hardAlpha"/>
<feOffset dy="3"/>
<feGaussianBlur stdDeviation="2.5"/>
<feComposite in2="hardAlpha" operator="out"/>
<feColorMatrix type="matrix" values="0 0 0 0 0.0820866 0 0 0 0 0.265127 0 0 0 0 0.662767 0 0 0 0.5 0"/>
<feBlend mode="normal" in2="BackgroundImageFix" result="effect1_dropShadow_1_14490"/>
<feBlend mode="normal" in="SourceGraphic" in2="effect1_dropShadow_1_14490" result="shape"/>
<feColorMatrix in="SourceAlpha" type="matrix" values="0 0 0 0 0 0 0 0 0 0 0 0 0 0 0 0 0 0 127 0" result="hardAlpha"/>
<feOffset dy="4"/>
<feGaussianBlur stdDeviation="2"/>
<feComposite in2="hardAlpha" operator="arithmetic" k2="-1" k3="1"/>
<feColorMatrix type="matrix" values="0 0 0 0 1 0 0 0 0 1 0 0 0 0 1 0 0 0 0.3 0"/>
<feBlend mode="normal" in2="shape" result="effect2_innerShadow_1_14490"/>
</filter>
<linearGradient id="paint0_linear_1_14490" x1="28.9525" y1="3.64209" x2="28.9525" y2="13.8494" gradientUnits="userSpaceOnUse">
<stop stop-color="#EBF1FF"/>
<stop offset="1" stop-color="#BECFF5"/>
</linearGradient>
<linearGradient id="paint1_linear_1_14490" x1="19.8307" y1="3.61865" x2="19.8307" y2="33.6187" gradientUnits="userSpaceOnUse">
<stop stop-color="#EBF1FF"/>
<stop offset="1" stop-color="#BECFF5"/>
</linearGradient>
</defs>
</svg>
