<svg width="43" height="43" viewBox="0 0 43 43" fill="none" xmlns="http://www.w3.org/2000/svg">
<g filter="url(#filter0_di_132_15245)">
<path d="M36.6309 4.74365H6.63086C6.01586 4.74365 5.50586 4.23365 5.50586 3.61865C5.50586 3.00365 6.01586 2.49365 6.63086 2.49365H36.6309C37.2459 2.49365 37.7559 3.00365 37.7559 3.61865C37.7559 4.23365 37.2459 4.74365 36.6309 4.74365Z" fill="#292D32"/>
<path d="M36.6309 4.74365H6.63086C6.01586 4.74365 5.50586 4.23365 5.50586 3.61865C5.50586 3.00365 6.01586 2.49365 6.63086 2.49365H36.6309C37.2459 2.49365 37.7559 3.00365 37.7559 3.61865C37.7559 4.23365 37.2459 4.74365 36.6309 4.74365Z" fill="url(#paint0_linear_132_15245)"/>
<path d="M28.6333 34.1287C28.4383 34.5187 28.0333 34.7437 27.6283 34.7437C27.4633 34.7437 27.2833 34.6987 27.1333 34.6237L21.6283 31.8787L16.1233 34.6237C15.9733 34.6987 15.7933 34.7437 15.6283 34.7437C15.2233 34.7437 14.8183 34.5187 14.6233 34.1287C14.3383 33.5587 14.5633 32.8837 15.1333 32.6137L20.5033 29.9287V26.1187H22.7533V29.9287L28.1233 32.6137C28.6933 32.8837 28.9183 33.5587 28.6333 34.1287Z" fill="#292D32"/>
<path d="M28.6333 34.1287C28.4383 34.5187 28.0333 34.7437 27.6283 34.7437C27.4633 34.7437 27.2833 34.6987 27.1333 34.6237L21.6283 31.8787L16.1233 34.6237C15.9733 34.6987 15.7933 34.7437 15.6283 34.7437C15.2233 34.7437 14.8183 34.5187 14.6233 34.1287C14.3383 33.5587 14.5633 32.8837 15.1333 32.6137L20.5033 29.9287V26.1187H22.7533V29.9287L28.1233 32.6137C28.6933 32.8837 28.9183 33.5587 28.6333 34.1287Z" fill="url(#paint1_linear_132_15245)"/>
<path d="M8.13086 3.61865V21.7687C8.13086 24.6187 9.63086 26.1187 12.4809 26.1187H30.7809C33.6309 26.1187 35.1309 24.6187 35.1309 21.7687V3.61865H8.13086ZM29.1009 13.4887L24.3759 17.4337C23.9409 17.7937 23.3859 17.9437 22.8609 17.8537C22.3209 17.7637 21.8559 17.4337 21.5709 16.9537L19.9959 14.3287L15.6009 17.9887C15.3909 18.1687 15.1359 18.2437 14.8809 18.2437C14.5659 18.2437 14.2359 18.1087 14.0109 17.8387C13.6059 17.3587 13.6809 16.6537 14.1609 16.2487L18.8859 12.3037C19.3209 11.9437 19.8759 11.7937 20.4009 11.8837C20.9409 11.9737 21.4059 12.3037 21.6909 12.7837L23.2659 15.4087L27.6609 11.7487C28.1409 11.3437 28.8459 11.4187 29.2509 11.8987C29.6409 12.3787 29.5809 13.0837 29.1009 13.4887Z" fill="#292D32"/>
<path d="M8.13086 3.61865V21.7687C8.13086 24.6187 9.63086 26.1187 12.4809 26.1187H30.7809C33.6309 26.1187 35.1309 24.6187 35.1309 21.7687V3.61865H8.13086ZM29.1009 13.4887L24.3759 17.4337C23.9409 17.7937 23.3859 17.9437 22.8609 17.8537C22.3209 17.7637 21.8559 17.4337 21.5709 16.9537L19.9959 14.3287L15.6009 17.9887C15.3909 18.1687 15.1359 18.2437 14.8809 18.2437C14.5659 18.2437 14.2359 18.1087 14.0109 17.8387C13.6059 17.3587 13.6809 16.6537 14.1609 16.2487L18.8859 12.3037C19.3209 11.9437 19.8759 11.7937 20.4009 11.8837C20.9409 11.9737 21.4059 12.3037 21.6909 12.7837L23.2659 15.4087L27.6609 11.7487C28.1409 11.3437 28.8459 11.4187 29.2509 11.8987C29.6409 12.3787 29.5809 13.0837 29.1009 13.4887Z" fill="url(#paint2_linear_132_15245)"/>
</g>
<defs>
<filter id="filter0_di_132_15245" x="0.505859" y="0.493652" width="42.25" height="42.25" filterUnits="userSpaceOnUse" color-interpolation-filters="sRGB">
<feFlood flood-opacity="0" result="BackgroundImageFix"/>
<feColorMatrix in="SourceAlpha" type="matrix" values="0 0 0 0 0 0 0 0 0 0 0 0 0 0 0 0 0 0 127 0" result="hardAlpha"/>
<feOffset dy="3"/>
<feGaussianBlur stdDeviation="2.5"/>
<feComposite in2="hardAlpha" operator="out"/>
<feColorMatrix type="matrix" values="0 0 0 0 0.0820866 0 0 0 0 0.265127 0 0 0 0 0.662767 0 0 0 0.5 0"/>
<feBlend mode="normal" in2="BackgroundImageFix" result="effect1_dropShadow_132_15245"/>
<feBlend mode="normal" in="SourceGraphic" in2="effect1_dropShadow_132_15245" result="shape"/>
<feColorMatrix in="SourceAlpha" type="matrix" values="0 0 0 0 0 0 0 0 0 0 0 0 0 0 0 0 0 0 127 0" result="hardAlpha"/>
<feOffset dy="4"/>
<feGaussianBlur stdDeviation="2"/>
<feComposite in2="hardAlpha" operator="arithmetic" k2="-1" k3="1"/>
<feColorMatrix type="matrix" values="0 0 0 0 1 0 0 0 0 1 0 0 0 0 1 0 0 0 0.3 0"/>
<feBlend mode="normal" in2="shape" result="effect2_innerShadow_132_15245"/>
</filter>
<linearGradient id="paint0_linear_132_15245" x1="21.6309" y1="2.49365" x2="21.6309" y2="4.74365" gradientUnits="userSpaceOnUse">
<stop stop-color="#EBF1FF"/>
<stop offset="1" stop-color="#BECFF5"/>
</linearGradient>
<linearGradient id="paint1_linear_132_15245" x1="21.6283" y1="26.1187" x2="21.6283" y2="34.7437" gradientUnits="userSpaceOnUse">
<stop stop-color="#EBF1FF"/>
<stop offset="1" stop-color="#BECFF5"/>
</linearGradient>
<linearGradient id="paint2_linear_132_15245" x1="21.6309" y1="3.61865" x2="21.6309" y2="26.1187" gradientUnits="userSpaceOnUse">
<stop stop-color="#EBF1FF"/>
<stop offset="1" stop-color="#BECFF5"/>
</linearGradient>
</defs>
</svg>
