<svg width="96" height="65" viewBox="0 0 96 65" fill="none" xmlns="http://www.w3.org/2000/svg">
<g clip-path="url(#clip0_1_14847)">
<mask id="mask0_1_14847" style="mask-type:luminance" maskUnits="userSpaceOnUse" x="-300" y="-70" width="700" height="701">
<path d="M-299.242 630.15H399.983V-69.0753H-299.242V630.15Z" fill="white"/>
</mask>
<g mask="url(#mask0_1_14847)">
<path d="M49.3979 45.3887C47.9695 45.2947 46.3239 45.0433 45.0259 44.6675C44.7828 44.597 43.7761 44.227 43.52 44.1095C39.0013 42.0163 35.8533 37.4471 35.8533 32.146C35.8533 24.8751 41.7687 18.9526 49.0443 18.9526C56.2565 18.9526 62.1308 24.774 62.2318 31.9627H66.9972C66.8962 22.1476 58.8841 14.193 49.0443 14.193C39.1457 14.193 31.089 22.2451 31.089 32.146C31.089 38.9717 34.9277 44.9083 40.5482 47.9411C41.5051 48.4272 42.4964 48.8422 43.5142 49.1827C45.1164 49.6596 47.0827 49.9767 48.8329 50.1106C49.4272 50.1541 51.5028 50.1776 52.1077 50.1812H84.9243V45.4333H52.1641C51.7271 45.4333 49.8231 45.4169 49.3967 45.3887M52.1629 37.9357C51.8164 37.9357 50.0039 37.9239 49.6692 37.8957C49.1018 37.8488 48.2796 37.763 47.751 37.642C47.1543 37.4823 46.594 37.2709 46.3415 37.1322C45.4416 36.647 44.6898 35.9273 44.1657 35.0495C43.6417 34.1716 43.3651 33.1683 43.365 32.146C43.3647 31.4 43.5114 30.6612 43.7966 29.9719C44.0819 29.2826 44.5002 28.6562 45.0276 28.1286C45.555 27.6009 46.1812 27.1824 46.8704 26.8969C47.5596 26.6113 48.2983 26.4643 49.0443 26.4643C50.5183 26.4657 51.934 27.0401 52.9923 28.0661C54.0505 29.0922 54.6684 30.4895 54.7154 31.9627H59.294C59.1977 26.3833 54.6496 21.8868 49.0443 21.8868C47.6969 21.8867 46.3627 22.1519 45.1178 22.6674C43.8729 23.1829 42.7417 23.9385 41.7888 24.8912C40.8359 25.8438 40.08 26.9748 39.5643 28.2196C39.0485 29.4644 38.783 30.7986 38.7828 32.146C38.7828 36.142 41.0733 39.5931 44.4092 41.2845C44.9225 41.5841 45.8893 41.8989 46.1629 41.9705C47.105 42.2184 48.3712 42.3875 49.3967 42.4639C49.7761 42.4944 51.6344 42.5085 52.0279 42.5108V42.5179H84.9232V37.9369L52.1629 37.9357ZM28.1536 50.1635H23.3553V18.9632H16.3451V14.1649H28.1524L28.1536 50.1635ZM11.0781 21.3617V25.9745H16.3451V50.1623H20.9543V21.3606L11.0781 21.3617ZM76.4483 14.5007C74.7204 14.5007 73.2874 15.8786 73.2874 17.6076C73.2929 18.4442 73.6275 19.2449 74.2188 19.8367C74.8101 20.4284 75.6106 20.7636 76.4471 20.7698C76.8627 20.7713 77.2744 20.6905 77.6587 20.5322C78.0429 20.3738 78.3919 20.1409 78.6857 19.8469C78.9794 19.5529 79.2121 19.2037 79.3702 18.8194C79.5283 18.4351 79.6087 18.0232 79.6068 17.6076C79.6068 15.8786 78.2302 14.5007 76.4483 14.5007ZM76.4471 20.2599C76.098 20.2623 75.7519 20.1953 75.4288 20.0629C75.1058 19.9304 74.8122 19.7352 74.5652 19.4885C74.3182 19.2418 74.1225 18.9486 73.9897 18.6257C73.8568 18.3028 73.7894 17.9568 73.7913 17.6076C73.7913 16.1546 75.0211 15.0047 76.4483 15.0047C77.8743 15.0047 79.0982 16.1546 79.0982 17.6076C79.1007 17.9564 79.0339 18.3023 78.9016 18.625C78.7694 18.9478 78.5743 19.2411 78.3278 19.4879C78.0812 19.7346 77.7881 19.93 77.4655 20.0625C77.1428 20.195 76.7959 20.2621 76.4471 20.2599Z" fill="#D91920"/>
<path d="M77.6496 18.4584C77.6496 18.1096 77.5979 17.7854 77.1985 17.6573C77.6989 17.4835 77.7482 17.1558 77.7482 16.9572C77.7482 16.155 77.0199 16.0528 76.7204 16.0528H75.3438V19.1597H75.9193V17.8852H76.3704C77.0211 17.8852 77.0751 18.1847 77.0751 18.4584C77.0751 18.9882 77.0752 19.088 77.1997 19.1597H77.7752C77.6507 19.034 77.7001 18.9365 77.6507 18.4584M76.5959 17.4318H75.9182V16.4534H76.4984C76.9001 16.4534 77.1726 16.5802 77.1726 16.9585C77.1726 17.157 77.0752 17.433 76.5971 17.433" fill="#D91920"/>
</g>
</g>
<defs>
<clipPath id="clip0_1_14847">
<rect width="96" height="64" fill="white" transform="translate(0 0.17334)"/>
</clipPath>
</defs>
</svg>
