<svg width="64" height="65" viewBox="0 0 64 65" fill="none" xmlns="http://www.w3.org/2000/svg">
<g clip-path="url(#clip0_1_14819)">
<path fill-rule="evenodd" clip-rule="evenodd" d="M23.4887 0.17334C19.9579 0.175949 17.1005 3.04127 17.1031 6.57203C17.1005 10.1028 19.9606 12.9681 23.4913 12.9707H29.8796V6.57464C29.8822 3.04388 27.0221 0.178559 23.4887 0.17334C23.4913 0.17334 23.4913 0.17334 23.4887 0.17334ZM23.4887 17.24H6.45858C2.92781 17.2426 0.06771 20.1079 0.0703196 23.6387C0.0651005 27.1695 2.9252 30.0348 6.45597 30.04H23.4887C27.0195 30.0374 29.8796 27.1721 29.877 23.6413C29.8796 20.1079 27.0195 17.2426 23.4887 17.24Z" fill="#36C5F0"/>
<path fill-rule="evenodd" clip-rule="evenodd" d="M63.9317 23.6387C63.9343 20.1079 61.0742 17.2426 57.5434 17.24C54.0126 17.2426 51.1525 20.1079 51.1551 23.6387V30.04H57.5434C61.0742 30.0374 63.9343 27.1721 63.9317 23.6387ZM46.8989 23.6387V6.57203C46.9015 3.04388 44.044 0.178559 40.5133 0.17334C36.9825 0.175949 34.1224 3.04127 34.125 6.57203V23.6387C34.1198 27.1695 36.9799 30.0348 40.5107 30.04C44.0414 30.0374 46.9015 27.1721 46.8989 23.6387Z" fill="#2EB67D"/>
<path fill-rule="evenodd" clip-rule="evenodd" d="M40.5133 64.1735C44.044 64.1709 46.9041 61.3055 46.9015 57.7748C46.9041 54.244 44.044 51.3787 40.5133 51.3761H34.125V57.7748C34.1224 61.3029 36.9825 64.1683 40.5133 64.1735ZM40.5133 47.1042H57.546C61.0768 47.1016 63.9369 44.2363 63.9343 40.7055C63.9395 37.1747 61.0794 34.3094 57.5486 34.3042H40.5159C36.9851 34.3068 34.125 37.1721 34.1276 40.7029C34.125 44.2363 36.9825 47.1016 40.5133 47.1042Z" fill="#ECB22E"/>
<path fill-rule="evenodd" clip-rule="evenodd" d="M0.0703143 40.7048C0.0677047 44.2356 2.92781 47.1009 6.45857 47.1035C9.98934 47.1009 12.8494 44.2356 12.8468 40.7048V34.3062H6.45857C2.92781 34.3088 0.0677047 37.1741 0.0703143 40.7048ZM17.1031 40.7048V57.7715C17.0978 61.3023 19.9579 64.1676 23.4887 64.1728C27.0195 64.1702 29.8796 61.3049 29.877 57.7741V40.7101C29.8822 37.1793 27.0221 34.314 23.4913 34.3088C19.9579 34.3088 17.1004 37.1741 17.1031 40.7048Z" fill="#E01E5A"/>
</g>
<defs>
<clipPath id="clip0_1_14819">
<rect width="64" height="64" fill="white" transform="translate(0 0.17334)"/>
</clipPath>
</defs>
</svg>
